<?xml version="1.0" encoding="UTF-8"?>
<svg version="1.1" xmlns="http://www.w3.org/2000/svg" width="491" height="100">
<path d="M0 0 C4.3104861 0.52935794 4.89525357 1.10143519 7.5625 4.4375 C9.09539029 7.36702791 10.33301751 10.39839121 11.57421875 13.4609375 C12.12933388 14.79637856 12.12933388 14.79637856 12.69566345 16.15879822 C13.8902813 19.03941224 15.07058307 21.92563277 16.25 24.8125 C17.06161404 26.78179235 17.87395162 28.75078666 18.68701172 30.71948242 C20.27428963 34.5663585 21.85606401 38.41543037 23.43408203 42.26611328 C25.17662901 46.51143181 26.95024412 50.74181449 28.74609375 54.96484375 C29.17253174 55.97562988 29.59896973 56.98641602 30.03833008 58.02783203 C30.77713695 59.77792692 31.5225351 61.52526175 32.27612305 63.26904297 C34.01792116 67.45061121 35.1778439 70.81896375 34.5625 75.4375 C32.375 77.875 32.375 77.875 29.5625 79.4375 C27 79.5 27 79.5 24.5625 78.4375 C20.61951905 74.61400332 18.37017055 69.57205357 16.5625 64.4375 C16.5625 63.4475 16.5625 62.4575 16.5625 61.4375 C5.6725 61.4375 -5.2175 61.4375 -16.4375 61.4375 C-17.4275 64.4075 -18.4175 67.3775 -19.4375 70.4375 C-22.44483823 77.49820714 -22.44483823 77.49820714 -26.4375 79.4375 C-29.5625 79.3125 -29.5625 79.3125 -32.4375 78.4375 C-34.59565822 75.20026267 -34.64012104 74.20821266 -33.97439575 70.5123291 C-32.88564109 66.30484589 -31.15559182 62.35414206 -29.46484375 58.359375 C-29.06350723 57.39332336 -28.66217072 56.42727173 -28.24867249 55.4319458 C-26.96502326 52.3472403 -25.67019851 49.26737141 -24.375 46.1875 C-23.53116465 44.16436949 -22.68805916 42.14093439 -21.84570312 40.1171875 C-20.1884972 36.13931321 -18.52305309 32.16504556 -16.85107422 28.19335938 C-15.25989799 24.41087885 -13.68945918 20.62087932 -12.13720703 16.82226562 C-11.77639542 15.9461261 -11.4155838 15.06998657 -11.0438385 14.16729736 C-10.36997153 12.53003586 -9.70167197 10.89046736 -9.0400238 9.24822998 C-5.50283743 0.70036113 -5.50283743 0.70036113 0 0 Z M-0.4375 24.4375 C-3.7375 32.0275 -7.0375 39.6175 -10.4375 47.4375 C-3.8375 47.4375 2.7625 47.4375 9.5625 47.4375 C7.64909036 41.69727108 5.77639186 36.37151914 3.375 30.875 C3.10236328 30.24787109 2.82972656 29.62074219 2.54882812 28.97460938 C1.89012687 27.4607521 1.22682675 25.9488971 0.5625 24.4375 C0.2325 24.4375 -0.0975 24.4375 -0.4375 24.4375 Z " fill="#032920" transform="translate(141.4375,12.5625)"/>
<path d="M0 0 C6.38719938 4.90180417 10.92485374 12.93803272 12.125 20.875 C12.55449799 24.72592266 11.74891719 26.78262434 9.3125 29.875 C8.3125 30.875 8.3125 30.875 4.80249023 30.98852539 C3.24201578 30.98836626 1.68153607 30.98267142 0.12109375 30.97265625 C-0.69874496 30.9712413 -1.51858368 30.96982635 -2.36326599 30.96836853 C-4.99221382 30.96275289 -7.62107773 30.95019779 -10.25 30.9375 C-12.02799357 30.93248701 -13.80598846 30.92792376 -15.58398438 30.92382812 C-19.95185545 30.91277839 -24.31966348 30.89550331 -28.6875 30.875 C-28.97148391 34.552818 -28.97148391 34.552818 -27.26171875 37.640625 C-26.63910156 38.13046875 -26.01648438 38.6203125 -25.375 39.125 C-24.76011719 39.62515625 -24.14523437 40.1253125 -23.51171875 40.640625 C-19.27642391 43.50647761 -14.60703397 43.47248283 -9.6875 42.875 C-7.27070609 41.97945662 -5.00892914 40.90965866 -2.69140625 39.78515625 C-0.11033433 38.61285653 1.53818774 38.16160542 4.3125 38.875 C6.6875 41.0625 6.6875 41.0625 8.3125 43.875 C8.41311606 47.79902639 6.6154955 50.69161151 4 53.58203125 C-2.56694171 58.61364631 -13.94392471 57.42941091 -21.6875 56.875 C-29.31172837 55.70826202 -34.66111513 51.59299984 -39.6875 45.875 C-45.46267607 37.69350056 -46.59621024 28.52741808 -45.125 18.75 C-43.14236129 10.58310414 -38.82163085 3.76352037 -31.82421875 -0.94140625 C-21.13672381 -6.86153599 -10.35886076 -6.59407656 0 0 Z M-28.6875 12.875 C-28.501875 13.49375 -28.31625 14.1125 -28.125 14.75 C-27.6875 16.875 -27.6875 16.875 -28.6875 18.875 C-20.4375 18.875 -12.1875 18.875 -3.6875 18.875 C-4.13827371 14.03124934 -4.13827371 14.03124934 -6.5625 12.1875 C-7.26375 11.754375 -7.965 11.32125 -8.6875 10.875 C-9.6775 10.215 -10.6675 9.555 -11.6875 8.875 C-18.49548332 7.95586881 -23.44531609 8.34121932 -28.6875 12.875 Z M-29.6875 14.875 C-28.6875 16.875 -28.6875 16.875 -28.6875 16.875 Z M-30.6875 16.875 C-29.6875 18.875 -29.6875 18.875 -29.6875 18.875 Z M-30.6875 30.875 C-29.6875 32.875 -29.6875 32.875 -29.6875 32.875 Z " fill="#032920" transform="translate(283.6875,35.125)"/>
<path d="M0 0 C6.25264665 4.97155928 10.16882663 11.68706376 11.765625 19.52734375 C12.3183615 25.71799254 12.3183615 25.71799254 10.27636719 28.70800781 C6.75491624 31.25972431 3.47330264 31.13018824 -0.71875 31.13671875 C-1.53434387 31.153255 -2.34993774 31.16979126 -3.19024658 31.18682861 C-5.78836597 31.23530958 -8.38590009 31.25667898 -10.984375 31.27734375 C-12.74872736 31.30550347 -14.51305246 31.33543091 -16.27734375 31.3671875 C-20.59630597 31.44106817 -24.91494329 31.49064187 -29.234375 31.52734375 C-28.72054925 35.37948654 -28.72054925 35.37948654 -26.296875 38.27734375 C-24.27517998 39.5407442 -24.27517998 39.5407442 -22.234375 40.52734375 C-21.698125 40.87796875 -21.161875 41.22859375 -20.609375 41.58984375 C-16.16845741 43.34283754 -12.1136462 43.22047001 -7.703125 41.59375 C-6.8471875 41.22121094 -5.99125 40.84867188 -5.109375 40.46484375 C-1.09383626 38.72271771 1.48807684 37.92326319 5.765625 39.52734375 C7.765625 42.52734375 7.765625 42.52734375 8.328125 44.83984375 C7.55360869 48.54031058 5.80478043 49.8974786 2.8671875 52.16796875 C-4.81431489 57.1366729 -13.2977019 57.43116637 -22.234375 56.52734375 C-29.87898075 54.68889916 -36.32951953 50.86576426 -40.73828125 44.28125 C-45.86895867 35.37930541 -46.81881829 25.67642823 -44.5859375 15.6015625 C-41.59527469 7.38363009 -35.94107189 0.70180457 -28.234375 -3.47265625 C-18.0674039 -7.30924912 -9.01920778 -5.94447786 0 0 Z M-29.234375 13.52734375 C-29.894375 15.17734375 -30.554375 16.82734375 -31.234375 18.52734375 C-21.994375 18.52734375 -12.754375 18.52734375 -3.234375 18.52734375 C-5.15508855 13.72555988 -6.55571847 10.72326492 -11.234375 8.52734375 C-18.72897072 7.24402257 -24.22648919 7.59695266 -29.234375 13.52734375 Z " fill="#032920" transform="translate(478.234375,35.47265625)"/>
<path d="M0 0 C4.7796556 2.83760606 7.34575402 6.3803912 8.91113281 11.66625977 C10.00587199 16.22193344 10.17840262 20.60377957 10.19140625 25.2734375 C10.19806305 26.11827698 10.20471985 26.96311646 10.21157837 27.83355713 C10.22163616 29.6049992 10.22639754 31.37647863 10.22607422 33.14794922 C10.23047982 35.85837166 10.26695822 38.56720513 10.3046875 41.27734375 C10.31055069 43.0052028 10.31452341 44.73306953 10.31640625 46.4609375 C10.33077728 47.26827332 10.34514832 48.07560913 10.35995483 48.90740967 C10.33053741 52.51540158 10.17910613 54.66060549 8.01416016 57.61035156 C5.06148151 59.65004407 3.37105466 59.68749348 -0.14453125 59.1015625 C-2.30053711 57.54418945 -2.30053711 57.54418945 -4.14453125 55.1015625 C-4.52748396 52.43928129 -4.67945705 50.17738206 -4.6484375 47.51953125 C-4.65785873 46.78712723 -4.66727997 46.05472321 -4.67698669 45.30012512 C-4.70560512 42.96281924 -4.70871756 40.6265292 -4.70703125 38.2890625 C-4.71065262 35.96245528 -4.72035925 33.6365894 -4.74778748 31.31013489 C-4.76441845 29.86547572 -4.76757669 28.42057403 -4.754776 26.97587585 C-4.80437487 22.16783327 -5.56004717 16.68604658 -9.14453125 13.1015625 C-10.99740627 13.02929748 -12.85287003 13.0177503 -14.70703125 13.0390625 C-15.71894531 13.04808594 -16.73085938 13.05710937 -17.7734375 13.06640625 C-18.55589844 13.07800781 -19.33835937 13.08960938 -20.14453125 13.1015625 C-20.47453125 13.7615625 -20.80453125 14.4215625 -21.14453125 15.1015625 C-21.78390625 15.2046875 -22.42328125 15.3078125 -23.08203125 15.4140625 C-25.34182516 15.9060304 -25.34182516 15.9060304 -26.25634766 18.15795898 C-27.34560375 21.7679537 -27.42324576 25.15339293 -27.41796875 28.88671875 C-27.43824664 30.40170024 -27.4590972 31.91667416 -27.48046875 33.43164062 C-27.50310582 35.80385788 -27.51956004 38.17577519 -27.52539062 40.5480957 C-27.53491133 42.84901104 -27.56866339 45.14860071 -27.60546875 47.44921875 C-27.60042328 48.15659683 -27.59537781 48.86397491 -27.59017944 49.5927887 C-27.65786652 52.98277026 -27.924483 54.80990108 -29.99072266 57.54858398 C-32.14453125 59.1015625 -32.14453125 59.1015625 -35.14453125 59.6015625 C-38.85247055 58.98357262 -39.81382248 57.9950023 -42.14453125 55.1015625 C-42.65919495 52.67333984 -42.65919495 52.67333984 -42.67797852 49.9375 C-42.70173302 48.39570068 -42.70173302 48.39570068 -42.72596741 46.82275391 C-42.72100754 45.71851074 -42.71604767 44.61426758 -42.7109375 43.4765625 C-42.71713608 42.33751465 -42.72333466 41.1984668 -42.72972107 40.02490234 C-42.73682258 37.61752172 -42.73363955 35.21009202 -42.72094727 32.80273438 C-42.70708166 29.1149685 -42.74115149 25.42973901 -42.77929688 21.7421875 C-42.78024804 19.40364521 -42.7783894 17.06509974 -42.7734375 14.7265625 C-42.78669571 13.62231934 -42.79995392 12.51807617 -42.81361389 11.38037109 C-42.72081605 3.76982996 -42.72081605 3.76982996 -39.79663086 0.37890625 C-37.14453125 -0.8984375 -37.14453125 -0.8984375 -34.08203125 -0.9609375 C-30.49624062 0.3360506 -29.2315443 1.97104293 -27.14453125 5.1015625 C-26.52964844 4.68003906 -25.91476562 4.25851563 -25.28125 3.82421875 C-24.47300781 3.27636719 -23.66476562 2.72851562 -22.83203125 2.1640625 C-22.03152344 1.61878906 -21.23101562 1.07351562 -20.40625 0.51171875 C-14.22645554 -3.34131372 -6.54124782 -2.79406594 0 0 Z " fill="#032920" transform="translate(348.14453125,31.8984375)"/>
<path d="M0 0 C2.85936501 0.99456174 4.11283385 1.58861474 5.875 4 C7.08992283 7.64476849 7.02935287 11.01333442 7.05078125 14.80859375 C7.07397406 16.37566455 7.09809118 17.9427219 7.12304688 19.50976562 C7.15818987 21.97641082 7.18752748 24.44255845 7.20092773 26.90942383 C7.21640453 29.2930891 7.25660013 31.67531027 7.30078125 34.05859375 C7.29887283 34.79411972 7.29696442 35.52964569 7.29499817 36.28746033 C7.37813543 39.76975673 7.61430161 41.66320315 9.77441406 44.45385742 C13.24397911 47.00764118 16.66353999 47.06016371 20.875 47 C23.80011453 46.5666741 23.80011453 46.5666741 25.875 45 C28.13000881 40.77364994 28.13997991 36.70757995 28.11328125 32.03125 C28.12869444 30.47525163 28.14499759 28.91926187 28.16210938 27.36328125 C28.17857815 24.92737739 28.18747713 22.4921075 28.18041992 20.05615234 C28.17779681 17.6929653 28.20592672 15.33168219 28.23828125 12.96875 C28.22807449 12.24465942 28.21786774 11.52056885 28.20735168 10.77453613 C28.28289575 6.85512862 28.77609482 5.12647669 31.21948242 2.00195312 C33.875 0 33.875 0 37 0 C41.35093583 1.51336898 41.35093583 1.51336898 42.875 4 C45.14854113 17.81492003 46.82763413 37.7778537 40.0625 50.375 C39.340625 51.24125 38.61875 52.1075 37.875 53 C37.1325 54.0725 36.39 55.145 35.625 56.25 C30.41067542 61.46432458 24.47295022 61.14964023 17.4375 61.375 C10.10656388 61.25111738 4.74669787 60.29906264 -0.89453125 55.4921875 C-9.02780361 46.98292445 -8.65676946 36.21230684 -8.62597656 25.21484375 C-8.62499645 22.74103089 -8.66687504 20.27024772 -8.7109375 17.796875 C-8.71614015 16.21354807 -8.71883276 14.63021047 -8.71875 13.046875 C-8.73514526 12.31345886 -8.75154053 11.58004272 -8.76843262 10.82440186 C-8.71539566 6.88416899 -8.23469267 5.14066095 -5.78320312 1.99707031 C-3.125 0 -3.125 0 0 0 Z " fill="#032A21" transform="translate(379.125,31)"/>
<path d="M0 0 C3.04007747 3.22128042 3.89016514 6.53926384 4.96118164 10.78125 C5.22036629 11.79196815 5.22036629 11.79196815 5.48478699 12.82310486 C6.05239321 15.04652677 6.60649737 17.27306765 7.16015625 19.5 C7.55396665 21.05754389 7.94846318 22.61491444 8.34361267 24.17211914 C9.17050603 27.43900081 9.99109078 30.70738013 10.80688477 33.97705078 C11.84506588 38.13715687 12.89553029 42.29403091 13.95044804 46.44992065 C14.76683733 49.66972657 15.57811875 52.89080221 16.38778496 56.11230469 C16.77290271 57.6433663 17.15918096 59.17413654 17.54670906 60.70458984 C24.05090869 86.44606095 24.05090869 86.44606095 21 92 C17.40735548 93.19754817 14.77282526 93.33094958 11 93 C7.02196175 89.97466546 6.10612009 86.91298744 4.92529297 82.15527344 C4.75235718 81.47503616 4.57942139 80.79479889 4.40124512 80.09394836 C3.83484713 77.85220757 3.28848913 75.60608976 2.7421875 73.359375 C2.35035773 71.7921123 1.95728201 70.22516062 1.5630188 68.6585083 C0.52883253 64.53493956 -0.48843163 60.40737697 -1.50219727 56.27874756 C-2.53170462 52.09866923 -3.57703136 47.92255568 -4.62109375 43.74609375 C-6.46096454 36.37731769 -8.28698049 29.00522869 -10.10305786 21.6305542 C-10.57730366 19.71094868 -11.05336706 17.79174714 -11.54421616 15.87631989 C-13.54103491 8.05776182 -13.54103491 8.05776182 -13 4 C-9.22245825 -1.86170272 -6.38184505 -2.79205721 0 0 Z " fill="#032920" transform="translate(72,4)"/>
<path d="M0 0 C2 1.9375 2 1.9375 3 5 C2.11909603 14.30376557 -0.73387852 23.5801243 -2.95703125 32.6484375 C-3.14754248 33.42645344 -3.3380537 34.20446938 -3.534338 35.00606155 C-4.54063529 39.11078556 -5.55190818 43.21425065 -6.56665039 47.31689453 C-7.40171545 50.69738309 -8.22639837 54.08015274 -9.04223633 57.46533203 C-10.03386323 61.57980302 -11.04275688 65.68966968 -12.06421471 69.79683304 C-12.44853888 71.35422178 -12.82687227 72.91310214 -13.19895363 74.47346115 C-13.71999342 76.65264383 -14.26312014 78.82518737 -14.81176758 80.99755859 C-15.11440018 82.23234955 -15.41703278 83.4671405 -15.72883606 84.73934937 C-17.20105618 88.5157273 -18.88789177 90.43610611 -22 93 C-26.01762368 93.83700493 -27.47748934 93.33351744 -30.9375 91.125 C-33.95324558 86.55568851 -32.90001109 83.25843888 -32 78 C-30.8184202 72.46153647 -29.45537437 66.97490218 -28.0703125 61.484375 C-27.6749527 59.89888592 -27.28001176 58.31329233 -26.88546753 56.7276001 C-26.06119871 53.4217262 -25.23189317 50.11716908 -24.39892578 46.81347656 C-23.33463015 42.59056693 -22.28310308 38.36459928 -21.23530769 34.13756943 C-20.42369801 30.86940455 -19.60534493 27.6029571 -18.78496933 24.33698273 C-18.39459214 22.77945919 -18.0062892 21.22141417 -17.62015152 19.66283417 C-17.07928577 17.48404919 -16.52935253 15.307746 -15.97705078 13.13183594 C-15.66696075 11.89624939 -15.35687073 10.66066284 -15.03738403 9.38763428 C-12.45082169 0.94107353 -12.45082169 0.94107353 -8.6875 -1.5 C-5.10652874 -2.16622721 -3.24764206 -1.62382103 0 0 Z " fill="#032A20" transform="translate(33,4)"/>
<path d="M0 0 C2.88328299 4.47676809 5.07124092 9.16029208 7.234375 14.02734375 C7.51726379 14.66112442 7.80015259 15.29490509 8.09161377 15.94789124 C8.9811702 17.94292259 9.86566878 19.94014786 10.75 21.9375 C11.35773755 23.3028837 11.96580761 24.66811945 12.57421875 26.03320312 C14.05332028 29.35377011 15.52789932 32.67632238 17 36 C17.37286133 35.12263184 17.74572266 34.24526367 18.12988281 33.34130859 C19.52529225 30.06230661 20.92870937 26.7867819 22.33447266 23.51220703 C22.93982634 22.0990694 23.54305391 20.6850189 24.14404297 19.27001953 C25.0122157 17.22700609 25.88818247 15.187484 26.765625 13.1484375 C27.02933899 12.52319183 27.29305298 11.89794617 27.5647583 11.25375366 C32.11234088 0.75506365 32.11234088 0.75506365 36.5 -1 C39.30028387 -1 40.69452021 -0.56443271 43 1 C44.78751947 4.57503894 43.85948515 8.25011763 43 12 C41.2161653 16.66485193 39.05932513 21.13774521 36.875 25.625 C36.27758133 26.87571661 35.68139522 28.12702268 35.08642578 29.37890625 C33.92293497 31.8236128 32.75257982 34.26459489 31.578125 36.70410156 C30.25542143 39.46655486 28.95862481 42.23701042 27.6875 45.0234375 C27.21401123 46.06056885 27.21401123 46.06056885 26.73095703 47.11865234 C26.44849121 47.73949707 26.16602539 48.3603418 25.875 49 C22.6183117 56.15458983 22.6183117 56.15458983 20 59 C16.625 59.625 16.625 59.625 13 59 C7.25333673 53.63901883 4.69018824 46.2068838 1.625 39.125 C1.05065258 37.81342047 0.47561695 36.5021421 -0.10009766 35.19116211 C-0.95304805 33.24727191 -1.80477411 31.30290681 -2.65194702 29.35649109 C-4.20195955 25.79736929 -5.7897443 22.26097673 -7.4375 18.74609375 C-7.77346191 18.0195459 -8.10942383 17.29299805 -8.45556641 16.54443359 C-9.30424094 14.71502843 -10.16337006 12.89048293 -11.0234375 11.06640625 C-12.1429466 7.55114769 -11.99559485 5.5252185 -11 2 C-7.75771882 -1.8657968 -4.58434033 -1.47353796 0 0 Z " fill="#032920" transform="translate(188,32)"/>
<path d="M0 0 C2.12890625 1.5234375 2.12890625 1.5234375 4 4 C4.37305672 6.98445372 4.51564017 9.53067365 4.4375 12.5 C4.44458984 13.25925781 4.45167969 14.01851562 4.45898438 14.80078125 C4.42118957 18.12090962 4.25302922 20.55455581 2.59765625 23.46875 C1 25 1 25 -1 26 C-8.47282609 24.36956522 -8.47282609 24.36956522 -11 21 C-12.40053506 18.19892988 -12.2075504 15.81108319 -12.25 12.6875 C-12.27578125 11.55699219 -12.3015625 10.42648438 -12.328125 9.26171875 C-11.96832596 5.68514496 -11.11804647 3.86711168 -9 1 C-5.8288561 -1.32550553 -3.67206848 -1.28522397 0 0 Z " fill="#032A21" transform="translate(51,72)"/>
<path d="M0 0 C2.54889993 3.8233499 2.36755608 7.00464642 2.375 11.4375 C2.39949219 12.20126953 2.42398438 12.96503906 2.44921875 13.75195312 C2.46876013 17.49412675 2.43170915 19.40102691 0.1953125 22.50390625 C-3.02324528 24.6973362 -5.19854317 24.54306526 -9 24 C-11.36497439 22.13291495 -12.66030715 20.67938569 -14 18 C-14.14901491 15.89946284 -14.22138453 13.79312175 -14.25 11.6875 C-14.27578125 10.55699219 -14.3015625 9.42648437 -14.328125 8.26171875 C-13.90163288 4.02218395 -12.55317457 1.27582197 -9.25 -1.4375 C-5.74287509 -2.31428123 -3.30465927 -1.28514527 0 0 Z " fill="#032C22" transform="translate(53,4)"/>
<path d="M0 0 C2.74310694 2.50347921 3.00111592 4.01050276 3.3984375 7.75 C3.4063666 9.16666602 3.39809511 10.58350005 3.375 12 C3.38660156 12.7115625 3.39820312 13.423125 3.41015625 14.15625 C3.39246142 17.31772547 3.19765111 19.63293366 1.6875 22.4375 C-1.04403048 24.96669489 -3.35932264 25 -7 25 C-10.42741629 22.91374661 -11.72481037 21.8255689 -13 18 C-13.17066284 15.87930439 -13.2662598 13.75204902 -13.3125 11.625 C-13.34988281 10.50351562 -13.38726562 9.38203125 -13.42578125 8.2265625 C-12.91371636 4.34614414 -11.70908823 2.76437575 -9 0 C-5.8168485 -1.59157575 -3.38676935 -0.77242108 0 0 Z " fill="#04291F" transform="translate(52,38)"/>
<path d="M0 0 C2.85936501 0.99456174 4.11283385 1.58861474 5.875 4 C7.08992283 7.64476849 7.02935287 11.01333442 7.05078125 14.80859375 C7.07397406 16.37566455 7.09809118 17.9427219 7.12304688 19.50976562 C7.15818987 21.97641082 7.18752748 24.44255845 7.20092773 26.90942383 C7.21640453 29.2930891 7.25660013 31.67531027 7.30078125 34.05859375 C7.29887283 34.79411972 7.29696442 35.52964569 7.29499817 36.28746033 C7.3778439 39.75754527 7.60016443 41.64933062 9.77026367 44.41821289 C11.74521125 45.90245896 13.60719509 47.02808361 15.875 48 C15.545 48.66 15.215 49.32 14.875 50 C9.99873543 48.60678155 7.79922027 46.06141704 4.875 42 C2.93183345 36.35607507 3.45124212 29.8952103 3.25 24 C3.1984375 22.71609375 3.146875 21.4321875 3.09375 20.109375 C3.04992187 18.87703125 3.00609375 17.6446875 2.9609375 16.375 C2.9201709 15.24835937 2.8794043 14.12171875 2.83740234 12.9609375 C2.87003314 10.39115664 3.24508265 8.4557748 3.875 6 C3.545 5.34 3.215 4.68 2.875 4 C-0.54142759 3.74984127 -0.54142759 3.74984127 -4.125 4 C-6.52129455 7.59444183 -6.38281331 10.14861652 -6.3203125 14.29296875 C-6.3174826 14.99899734 -6.31465271 15.70502594 -6.31173706 16.43244934 C-6.30055464 18.68430633 -6.2754542 20.93576352 -6.25 23.1875 C-6.23996767 24.71548904 -6.23084226 26.24348433 -6.22265625 27.77148438 C-6.20062172 31.51447663 -6.16610567 35.25717056 -6.125 39 C-7.115 39.495 -7.115 39.495 -8.125 40 C-8.2488948 35.10710835 -8.33947509 30.21513573 -8.3996582 25.32104492 C-8.42475347 23.65747161 -8.45883796 21.99400804 -8.50219727 20.33081055 C-8.5630746 17.93510847 -8.59125769 15.54086749 -8.61328125 13.14453125 C-8.63908768 12.4047554 -8.6648941 11.66497955 -8.69148254 10.90278625 C-8.69362865 6.92289821 -8.25917046 5.17288562 -5.78979492 1.9909668 C-3.125 0 -3.125 0 0 0 Z " fill="#021E15" transform="translate(379.125,31)"/>
<path d="M0 0 C2.02991882 3.37043125 2.25710476 5.97029612 2.265625 9.875 C2.26820313 11.02613281 2.27078125 12.17726563 2.2734375 13.36328125 C2.26570313 14.56339844 2.25796875 15.76351562 2.25 17 C2.25773437 18.16917969 2.26546875 19.33835937 2.2734375 20.54296875 C2.22612273 41.85827098 2.22612273 41.85827098 -4 49 C-6.25 50.875 -6.25 50.875 -8 52 C-7.67 50.68 -7.34 49.36 -7 48 C-6.34 48 -5.68 48 -5 48 C-1.08169735 38.62653927 -1.47790003 28.90832264 -1.375 18.9375 C-1.33848149 16.37567866 -1.2979804 13.8140098 -1.25234985 11.25233459 C-1.22514762 9.66765888 -1.20378568 8.08287006 -1.18881226 6.49803162 C-1.1107721 1.1107721 -1.1107721 1.1107721 0 0 Z " fill="#011C15" transform="translate(421,35)"/>
<path d="M0 0 C3.42570092 3.42570092 3.68726277 8.2885456 4 13 C2.8615222 15.71066143 2.01178838 16.98821162 0 19 C-2.73894085 19.08858646 -5.4525327 19.11523479 -8.19140625 19.09765625 C-9.01124496 19.0962413 -9.83108368 19.09482635 -10.67576599 19.09336853 C-13.30471382 19.08775289 -15.93357773 19.07519779 -18.5625 19.0625 C-20.34049357 19.05748701 -22.11848846 19.05292376 -23.89648438 19.04882812 C-28.26435545 19.03777839 -32.63216348 19.02050331 -37 19 C-37.33 19.66 -37.66 20.32 -38 21 C-38.66 21 -39.32 21 -40 21 C-39.67 19.68 -39.34 18.36 -39 17 C-34.21301863 16.83230926 -29.42587122 16.6717578 -24.63842773 16.51782227 C-23.00978145 16.46444796 -21.3811979 16.40912218 -19.75268555 16.35180664 C-17.41208422 16.26976789 -15.07134712 16.19474639 -12.73046875 16.12109375 C-11.63813179 16.08054115 -11.63813179 16.08054115 -10.52372742 16.03916931 C-7.36954376 15.94601821 -5.02200236 15.99266588 -2 17 C-1.01 16.67 -0.02 16.34 1 16 C0.85816304 14.24967156 0.71136571 12.49974466 0.5625 10.75 C0.48128906 9.77546875 0.40007812 8.8009375 0.31640625 7.796875 C0.07366763 5.06094908 0.07366763 5.06094908 -0.59765625 2.703125 C-0.79681641 1.86007813 -0.79681641 1.86007813 -1 1 C-0.67 0.67 -0.34 0.34 0 0 Z " fill="#041F18" transform="translate(292,47)"/>
<path d="M0 0 C0.99 0.33 1.98 0.66 3 1 C2.01 1.33 1.02 1.66 0 2 C-0.33 19.16 -0.66 36.32 -1 54 C-1.99 54.495 -1.99 54.495 -3 55 C-3.0759439 47.64939985 -3.12855502 40.29890053 -3.16479492 32.94799805 C-3.17989944 30.44633198 -3.20038429 27.94469247 -3.22631836 25.44311523 C-3.26262775 21.85133316 -3.27970975 18.25990059 -3.29296875 14.66796875 C-3.31619453 12.98503975 -3.31619453 12.98503975 -3.33988953 11.26811218 C-3.34022942 9.70683342 -3.34022942 9.70683342 -3.34057617 8.11401367 C-3.34723801 7.19690109 -3.35389984 6.27978851 -3.36076355 5.33488464 C-2.93506371 2.57972818 -2.14361642 1.71112833 0 0 Z " fill="#021B13" transform="translate(309,32)"/>
<path d="M0 0 C2.33573034 3.64957865 2.45652447 6.73910491 2 11 C0.56152344 13.18066406 0.56152344 13.18066406 -2 15 C-5.11478286 15.61202408 -8.19234982 15.60493399 -11.359375 15.609375 C-12.26375305 15.62591125 -13.1681311 15.64244751 -14.09991455 15.65948486 C-16.98334521 15.70799979 -19.86624834 15.72934344 -22.75 15.75 C-24.70705784 15.77815678 -26.66409107 15.80808379 -28.62109375 15.83984375 C-33.41401908 15.91375969 -38.20665096 15.96331298 -43 16 C-42.34 15.01 -41.68 14.02 -41 13 C-38.26759418 12.74535073 -35.76405755 12.67599869 -33.03515625 12.7421875 C-32.24604355 12.74880402 -31.45693085 12.75542053 -30.64390564 12.76223755 C-28.11637823 12.7856893 -25.58971677 12.82939537 -23.0625 12.875 C-20.53895701 12.91006589 -18.01546414 12.94087579 -15.49180603 12.96633911 C-13.92024203 12.98330647 -12.34873005 13.00644075 -10.77735901 13.03634644 C-7.56511959 13.08024576 -5.07297415 13.02432472 -2 12 C-2 11.01 -2 10.02 -2 9 C-1.34 8.67 -0.68 8.34 0 8 C-0.66 5.69 -1.32 3.38 -2 1 C-1.34 0.67 -0.68 0.34 0 0 Z " fill="#041E17" transform="translate(488,51)"/>
<path d="M0 0 C0.556875 0.268125 1.11375 0.53625 1.6875 0.8125 C0.70958496 1.30202148 -0.26833008 1.79154297 -1.27587891 2.29589844 C-4.68549768 4.57197505 -4.68549768 4.57197505 -4.99365234 8.57128906 C-4.99270715 10.07390264 -4.95907124 11.57673498 -4.8984375 13.078125 C-4.88994781 13.87152283 -4.88145813 14.66492065 -4.87271118 15.48236084 C-4.83918692 18.0104698 -4.7639198 20.53535963 -4.6875 23.0625 C-4.65739867 24.77859968 -4.63002314 26.49474949 -4.60546875 28.2109375 C-4.53940014 32.41269409 -4.4358937 36.61205181 -4.3125 40.8125 C-5.7975 41.3075 -5.7975 41.3075 -7.3125 41.8125 C-7.43625 42.43125 -7.56 43.05 -7.6875 43.6875 C-8.3125 45.8125 -8.3125 45.8125 -10.875 47.5625 C-11.679375 47.975 -12.48375 48.3875 -13.3125 48.8125 C-12.28698721 45.73596162 -11.50453004 45.00453004 -9.3125 42.8125 C-8.09949599 39.17348798 -8.17717296 35.82684202 -8.171875 32.0390625 C-8.15354869 30.4765479 -8.13397854 28.91404749 -8.11328125 27.3515625 C-8.08431248 24.89363611 -8.06249983 22.43662387 -8.06201172 19.97851562 C-8.0586713 17.60204401 -8.02409653 15.22766905 -7.984375 12.8515625 C-7.9914447 12.12119781 -7.9985144 11.39083313 -8.00579834 10.63833618 C-7.91144473 6.66848058 -7.41795831 4.94508536 -4.91503906 1.79833984 C-2.3125 -0.1875 -2.3125 -0.1875 0 0 Z " fill="#041F18" transform="translate(415.3125,31.1875)"/>
<path d="M0 0 C1.80607972 2.70911958 2.47232487 4.24338574 3.25268555 7.30029297 C3.47599045 8.164841 3.69929535 9.02938904 3.92936707 9.9201355 C4.27950615 11.31705124 4.27950615 11.31705124 4.63671875 12.7421875 C4.88041702 13.70271027 5.1241153 14.66323303 5.37519836 15.65286255 C5.88837259 17.68463207 6.39839991 19.71719862 6.90551758 21.75048828 C7.68348686 24.85896497 8.4788887 27.96263398 9.27539062 31.06640625 C9.77190725 33.04139699 10.2673846 35.01664936 10.76171875 36.9921875 C11.0012175 37.9194162 11.24071625 38.8466449 11.48747253 39.80197144 C11.70132095 40.67282379 11.91516937 41.54367615 12.13549805 42.44091797 C12.32710007 43.20242157 12.51870209 43.96392517 12.71611023 44.74850464 C13.0476643 47.37801975 12.63961345 49.44277932 12 52 C11.87625 51.43539062 11.7525 50.87078125 11.625 50.2890625 C10.95931918 47.85100651 10.02316726 45.68464962 9 43.375 C7.1772945 38.92969666 6.5287511 35.00035696 6.203125 30.234375 C5.93398611 27.27384724 5.04196503 24.77857341 4 22 C3.46779587 20.31605155 2.94793888 18.62817317 2.4375 16.9375 C2.18871094 16.12152344 1.93992187 15.30554687 1.68359375 14.46484375 C0.99746709 11.99086707 0.48700854 9.51973982 0 7 C-0.20625 6.29875 -0.4125 5.5975 -0.625 4.875 C-1 3 -1 3 0 0 Z " fill="#031B16" transform="translate(74,8)"/>
<path d="M0 0 C0.33 0.66 0.66 1.32 1 2 C0.19555664 4.24658203 0.19555664 4.24658203 -1.08984375 7.0078125 C-1.54423828 7.99394531 -1.99863281 8.98007812 -2.46679688 9.99609375 C-2.95212891 11.02863281 -3.43746094 12.06117187 -3.9375 13.125 C-4.65969727 14.68541016 -4.65969727 14.68541016 -5.39648438 16.27734375 C-6.5906387 18.85482537 -7.79443124 21.42783748 -9 24 C-2.73 24.33 3.54 24.66 10 25 C9.67 25.66 9.34 26.32 9 27 C6.2291017 27.02696009 3.4584655 27.04681952 0.6875 27.0625 C-0.09818359 27.07087891 -0.88386719 27.07925781 -1.69335938 27.08789062 C-2.45068359 27.09111328 -3.20800781 27.09433594 -3.98828125 27.09765625 C-5.03302612 27.10551147 -5.03302612 27.10551147 -6.09887695 27.11352539 C-8 27 -8 27 -11 26 C-11.33 24.35 -11.66 22.7 -12 21 C-11.34 20.67 -10.68 20.34 -10 20 C-9.11968375 18.34686486 -8.31900617 16.65083328 -7.5625 14.9375 C-7.12421875 13.94878906 -6.6859375 12.96007812 -6.234375 11.94140625 C-5.18368795 9.43771212 -4.22213752 6.93219526 -3.3125 4.375 C-2 1 -2 1 0 0 Z M10 23 C10.99 23.495 10.99 23.495 12 24 C11.01 24.495 11.01 24.495 10 25 C10 24.34 10 23.68 10 23 Z " fill="#031E18" transform="translate(141,35)"/>
<path d="M0 0 C3.7132216 2.7005248 4.24931746 6.72212536 5 11 C5.24139882 14.10972954 5.23495478 17.1949541 5.1953125 20.3125 C5.1924826 21.16682617 5.18965271 22.02115234 5.18673706 22.90136719 C5.17563879 25.60106053 5.15055427 28.30040877 5.125 31 C5.11495679 32.84244309 5.1058333 34.68489143 5.09765625 36.52734375 C5.0757335 41.01835994 5.04127646 45.50912168 5 50 C3 48 3 48 2.8046875 44.5793457 C2.81858159 43.11136953 2.84274421 41.64346877 2.875 40.17578125 C2.88257324 39.39615524 2.89014648 38.61652924 2.89794922 37.8132782 C2.93062829 34.47494844 2.98654357 31.13710661 3.04101562 27.79907227 C3.07741239 25.3621654 3.10147091 22.92534111 3.125 20.48828125 C3.14159668 19.7432283 3.15819336 18.99817535 3.17529297 18.23054504 C3.21930808 13.47513548 2.49327548 9.56573221 1 5 C0.64628502 3.33753959 0.30404678 1.67225729 0 0 Z " fill="#021B14" transform="translate(353,37)"/>
<path d="M0 0 C0.66 0.33 1.32 0.66 2 1 C1.514104 1.82669189 1.02820801 2.65338379 0.52758789 3.50512695 C-1.18763073 7.42926864 -1.44071472 10.71834482 -1.44140625 14.91796875 C-1.45461411 15.65702957 -1.46782196 16.39609039 -1.48143005 17.157547 C-1.52207597 19.50090415 -1.54393613 21.84387164 -1.5625 24.1875 C-1.58631404 26.54172266 -1.61442541 28.89557998 -1.65428162 31.24958801 C-1.67857892 32.70965312 -1.69348609 34.16991211 -1.69789124 35.63017273 C-1.75446201 39.30162449 -1.90659127 40.8598869 -4 44 C-4.99 43.67 -5.98 43.34 -7 43 C-6.34 42.34 -5.68 41.68 -5 41 C-4.76653311 38.39818928 -4.65061294 35.89470113 -4.62109375 33.2890625 C-4.60409927 32.52451752 -4.5871048 31.75997253 -4.56959534 30.97225952 C-4.51638602 28.52325754 -4.47616007 26.07427149 -4.4375 23.625 C-4.39349711 21.18295972 -4.34667675 18.74104753 -4.29469299 16.29916382 C-4.26288302 14.77893668 -4.23594786 13.2585978 -4.21446228 11.7381897 C-4.07576864 4.6032585 -4.07576864 4.6032585 -3 2 C-2.01 1.34 -1.02 0.68 0 0 Z " fill="#011B14" transform="translate(322,46)"/>
<path d="M0 0 C0.66 0.33 1.32 0.66 2 1 C1.67 1.99 1.34 2.98 1 4 C0.77820215 5.89212737 0.59385985 7.78884472 0.4375 9.6875 C0.35371094 10.68136719 0.26992188 11.67523438 0.18359375 12.69921875 C0.12300781 13.45847656 0.06242187 14.21773437 0 15 C0.66 15 1.32 15 2 15 C2.66 16.32 3.32 17.64 4 19 C8.14093698 19.20970559 8.14093698 19.20970559 12 18 C12.31241455 15.28553021 12.51336592 12.66090639 12.625 9.9375 C12.68300781 8.79958008 12.68300781 8.79958008 12.7421875 7.63867188 C12.83673562 5.75952805 12.91946756 3.87979664 13 2 C13.66 2 14.32 2 15 2 C15.1081866 4.58445773 15.18737237 7.16437352 15.25 9.75 C15.30027344 10.84441406 15.30027344 10.84441406 15.3515625 11.9609375 C15.41608132 15.50947276 15.31108124 17.56989637 13.203125 20.484375 C9.98232224 22.70010456 7.8153271 22.54504673 4 22 C1.63502561 20.13291495 0.33969285 18.67938569 -1 16 C-1.09706713 13.85595831 -1.12978536 11.70873249 -1.125 9.5625 C-1.12757812 8.40878906 -1.13015625 7.25507813 -1.1328125 6.06640625 C-1 3 -1 3 0 0 Z " fill="#051F18" transform="translate(40,6)"/>
<path d="M0 0 C0.89589844 0.00322266 1.79179687 0.00644531 2.71484375 0.00976562 C4.12056641 0.02233398 4.12056641 0.02233398 5.5546875 0.03515625 C6.49957031 0.03966797 7.44445312 0.04417969 8.41796875 0.04882812 C10.75527137 0.06063268 13.09244811 0.07709866 15.4296875 0.09765625 C15.7596875 0.75765625 16.0896875 1.41765625 16.4296875 2.09765625 C9.1696875 2.09765625 1.9096875 2.09765625 -5.5703125 2.09765625 C-6.5603125 5.06765625 -7.5503125 8.03765625 -8.5703125 11.09765625 C-11.1565194 16.8907597 -11.1565194 16.8907597 -13.5703125 18.09765625 C-12.9438887 13.92149755 -11.52795084 10.6101314 -9.6328125 6.84765625 C-8.84583984 5.26210937 -8.84583984 5.26210937 -8.04296875 3.64453125 C-5.83672824 -0.17103589 -4.14915123 -0.02626045 0 0 Z " fill="#031E18" transform="translate(130.5703125,71.90234375)"/>
<path d="M0 0 C0.66 0.33 1.32 0.66 2 1 C1.48725306 5.35834901 0.65787315 8.95893419 -1 13 C-1.98705203 16.00331073 -1.98705203 16.00331073 -2 19 C0.43467972 22.37109499 3.10674077 23.70224692 7 25 C7 25.33 7 25.66 7 26 C3.12571684 26.45049804 1.39295807 26.2508243 -1.9375 24.125 C-4.52344296 20.20690461 -4.29777071 18.29460925 -3.59765625 13.78125 C-2.59761085 9.12744397 -1.37709198 4.55566277 0 0 Z " fill="#031D17" transform="translate(4,71)"/>
<path d="M0 0 C0.66 0.33 1.32 0.66 2 1 C0.20871285 7.18808288 -2.38013114 14.38013114 -7 19 C-13.20512821 19.56410256 -13.20512821 19.56410256 -15.9375 17.625 C-17 16 -17 16 -17 14 C-16.34 14 -15.68 14 -15 14 C-14.67 14.66 -14.34 15.32 -14 16 C-12.02 16 -10.04 16 -8 16 C-4.91235274 10.81716353 -2.36516863 5.54808173 0 0 Z " fill="#021C15" transform="translate(215,72)"/>
<path d="M0 0 C0.66 0 1.32 0 2 0 C1.35521919 6.34405026 0.03753669 12.3329118 -1.5625 18.5 C-1.79646484 19.4178125 -2.03042969 20.335625 -2.27148438 21.28125 C-2.84333715 23.52197923 -3.41958293 25.76147688 -4 28 C-4.66 27.67 -5.32 27.34 -6 27 C-5.28983288 21.04928928 -3.92812711 15.36216682 -2.4375 9.5625 C-2.08655273 8.17901367 -2.08655273 8.17901367 -1.72851562 6.76757812 C-1.15557041 4.51087556 -0.57932816 2.25507079 0 0 Z " fill="#041F19" transform="translate(20,64)"/>
<path d="M0 0 C0.66 0.66 1.32 1.32 2 2 C1.65066406 2.88042969 1.30132812 3.76085937 0.94140625 4.66796875 C0.48636719 5.82941406 0.03132812 6.99085937 -0.4375 8.1875 C-0.88996094 9.33605469 -1.34242188 10.48460937 -1.80859375 11.66796875 C-2.81314888 14.47742949 -3.43568948 17.0861057 -4 20 C-5.4375 22.3125 -5.4375 22.3125 -7 24 C-7.66 24 -8.32 24 -9 24 C-6.80148049 15.63019764 -3.50929804 7.88172441 0 0 Z " fill="#041E16" transform="translate(132,23)"/>
<path d="M0 0 C0.66 0.33 1.32 0.66 2 1 C2.39171753 2.65391846 2.72057545 4.32345271 3 6 C3.33 6.99 3.66 7.98 4 9 C3.649375 9.721875 3.29875 10.44375 2.9375 11.1875 C1.5645037 15.30648889 2.74570503 17.88869983 4 22 C3.34 22.33 2.68 22.66 2 23 C-1.16963612 15.9491768 -1.88001203 7.52004813 0 0 Z " fill="#031F17" transform="translate(239,53)"/>
<path d="M0 0 C0.33 0 0.66 0 1 0 C1.08107646 2.75059381 1.14052813 5.49879021 1.1875 8.25 C1.22520508 9.41595703 1.22520508 9.41595703 1.26367188 10.60546875 C1.33789214 16.39464957 1.33789214 16.39464957 -0.38671875 19.484375 C-2 21 -2 21 -4 22 C-5.67654729 21.72057545 -7.34608154 21.39171753 -9 21 C-8.67 20.34 -8.34 19.68 -8 19 C-4.9375 18.375 -4.9375 18.375 -2 18 C-1.93941406 16.78441406 -1.87882812 15.56882812 -1.81640625 14.31640625 C-1.73201668 12.73175772 -1.6473679 11.14712298 -1.5625 9.5625 C-1.52318359 8.76005859 -1.48386719 7.95761719 -1.44335938 7.13085938 C-1.11328125 1.11328125 -1.11328125 1.11328125 0 0 Z " fill="#031D15" transform="translate(54,76)"/>
<path d="M0 0 C-1.423125 0.86625 -1.423125 0.86625 -2.875 1.75 C-6.39573047 4.25256313 -6.39573047 4.25256313 -8 8 C-8.16750414 10.66709069 -8.16750414 10.66709069 -8 13 C-7.67 13 -7.34 13 -7 13 C-7 15.31 -7 17.62 -7 20 C-7.66 20.33 -8.32 20.66 -9 21 C-10.40053506 18.19892988 -10.2075504 15.81108319 -10.25 12.6875 C-10.27578125 11.55699219 -10.3015625 10.42648438 -10.328125 9.26171875 C-9.96813347 5.68323152 -9.12640818 3.86445762 -7 1 C-4.02809533 -1.04318446 -3.53272459 -1.17757486 0 0 Z " fill="#062219" transform="translate(49,72)"/>
<path d="M0 0 C1.2557898 3.76736939 0.55901858 4.58382451 -1.08984375 8.10546875 C-1.54423828 9.08837891 -1.99863281 10.07128906 -2.46679688 11.08398438 C-2.95212891 12.10814453 -3.43746094 13.13230469 -3.9375 14.1875 C-4.41896484 15.22326172 -4.90042969 16.25902344 -5.39648438 17.32617188 C-6.58900182 19.88831331 -7.79044741 22.44586763 -9 25 C-9.66 24.34 -10.32 23.68 -11 23 C-11 22.01 -11 21.02 -11 20 C-10.34 20 -9.68 20 -9 20 C-8.62875 18.741875 -8.2575 17.48375 -7.875 16.1875 C-5.96808578 10.40227233 -3.03686412 5.25800098 0 0 Z " fill="#031E15" transform="translate(230,41)"/>
<path d="M0 0 C0 0.33 0 0.66 0 1 C-0.9178125 0.97679687 -1.835625 0.95359375 -2.78125 0.9296875 C-10.85289975 0.7234512 -10.85289975 0.7234512 -18.75 2.125 C-19.8225 2.41375 -20.895 2.7025 -22 3 C-22.66 2.34 -23.32 1.68 -24 1 C-15.66943081 -2.30859486 -8.50893138 -3.49084364 0 0 Z " fill="#031F17" transform="translate(472,32)"/>
<path d="M0 0 C0.33 0 0.66 0 1 0 C2.50331126 8.86953642 2.50331126 8.86953642 0 13 C-3.47325181 14.1577506 -6.36067448 14.06866652 -10 14 C-7.53721199 11.53721199 -5.29323018 11.00228745 -2 10 C-1.34 6.7 -0.68 3.4 0 0 Z " fill="#021B14" transform="translate(93,83)"/>
<path d="M0 0 C-0.33 0.99 -0.66 1.98 -1 3 C-1.62390625 3.31066406 -2.2478125 3.62132812 -2.890625 3.94140625 C-5.45634626 5.22901822 -6.27913071 6.49967034 -7.75 8.9375 C-8.17796875 9.62714844 -8.6059375 10.31679688 -9.046875 11.02734375 C-10.21752411 13.08506206 -10.21752411 13.08506206 -10 16 C-10.66 16 -11.32 16 -12 16 C-12.33 16.66 -12.66 17.32 -13 18 C-14 15 -14 15 -12.99609375 12.6953125 C-5.29787234 0 -5.29787234 0 0 0 Z " fill="#031B16" transform="translate(254,34)"/>
<path d="M0 0 C3.58447947 1.71756308 4.60040755 2.73269647 6 6.4375 C5.6875 10.25 5.6875 10.25 5 13.4375 C4.34 13.1075 3.68 12.7775 3 12.4375 C2.40644386 9.78889573 2.25790731 7.14552678 2 4.4375 C-0.64 3.4475 -3.28 2.4575 -6 1.4375 C-3 -0.5625 -3 -0.5625 0 0 Z " fill="#05201B" transform="translate(30,2.5625)"/>
<path d="M0 0 C2.39952159 3.59928238 2.38405931 5.71660995 2.625 10 C2.69976562 11.2375 2.77453125 12.475 2.8515625 13.75 C2.94664246 15.83175065 3 17.91607918 3 20 C-0.0103245 16.9896755 0.02180327 14.77096379 -0.09765625 10.546875 C-0.08605469 9.29390625 -0.07445312 8.0409375 -0.0625 6.75 C-0.05347656 5.48671875 -0.04445313 4.2234375 -0.03515625 2.921875 C-0.02355469 1.95765625 -0.01195312 0.9934375 0 0 Z " fill="#021C16" transform="translate(433,55)"/>
<path d="M0 0 C0.66 0.66 1.32 1.32 2 2 C-3.0940919 8.70459519 -3.0940919 8.70459519 -6.875 9.9375 C-7.57625 9.958125 -8.2775 9.97875 -9 10 C-7.61811547 6.78956118 -6.07578097 4.95063635 -3.375 2.75 C-2.74335938 2.22921875 -2.11171875 1.7084375 -1.4609375 1.171875 C-0.73777344 0.59179688 -0.73777344 0.59179688 0 0 Z " fill="#052019" transform="translate(447,34)"/>
<path d="M0 0 C0.33 0 0.66 0 1 0 C1 11.55 1 23.1 1 35 C0.67 35 0.34 35 0 35 C0 23.45 0 11.9 0 0 Z " fill="#000000" transform="translate(359,50)"/>
<path d="M0 0 C1.65 1.65 3.3 3.3 5 5 C6.65 4.01 8.3 3.02 10 2 C8.84826645 4.46800047 7.95216435 6.04783565 6 8 C4.68 8 3.36 8 2 8 C1.87625 7.030625 1.7525 6.06125 1.625 5.0625 C1.41875 4.051875 1.2125 3.04125 1 2 C0.34 1.67 -0.32 1.34 -1 1 C-0.67 0.67 -0.34 0.34 0 0 Z " fill="#021912" transform="translate(316,32)"/>
<path d="M0 0 C6.15721465 -0.33584807 11.38156145 0.30713892 17 3 C18.76171875 4.60546875 18.76171875 4.60546875 20 6 C17.36 5.67 14.72 5.34 12 5 C12 4.01 12 3.02 12 2 C11.01 2.33 10.02 2.66 9 3 C6.73828125 2.66015625 6.73828125 2.66015625 4.3125 2.0625 C3.50425781 1.86785156 2.69601562 1.67320313 1.86328125 1.47265625 C0.94095703 1.23869141 0.94095703 1.23869141 0 1 C0 0.67 0 0.34 0 0 Z " fill="#021B13" transform="translate(263,30)"/>
<path d="M0 0 C1.60875 0.680625 1.60875 0.680625 3.25 1.375 C3.58 2.365 3.91 3.355 4.25 4.375 C2.6454444 4.23351011 1.04136233 4.08664314 -0.5625 3.9375 C-1.45582031 3.85628906 -2.34914063 3.77507813 -3.26953125 3.69140625 C-5.75 3.375 -5.75 3.375 -8.75 2.375 C-5.43382937 -0.2377405 -4.2634937 -0.71058228 0 0 Z " fill="#031C16" transform="translate(49.75,2.625)"/>
<path d="M0 0 C0.66 0 1.32 0 2 0 C3.40234375 1.4609375 3.40234375 1.4609375 4.9375 3.375 C6.91986617 5.83901524 8.30699655 7.20466437 11 9 C11 9.66 11 10.32 11 11 C5.84563204 9.63560848 2.93351599 6.27426385 0 2 C0 1.34 0 0.68 0 0 Z " fill="#021C16" transform="translate(437,77)"/>
<path d="M0 0 C0.33 0 0.66 0 1 0 C1 9.57 1 19.14 1 29 C0.67 29 0.34 29 0 29 C0 19.43 0 9.86 0 0 Z " fill="#000000" transform="translate(321,54)"/>
<path d="M0 0 C2.09715785 3.14573677 2.52004559 5.01456251 3.125 8.6875 C3.29257813 9.68136719 3.46015625 10.67523438 3.6328125 11.69921875 C3.75398438 12.45847656 3.87515625 13.21773437 4 14 C0.08105976 11.38737317 -0.07812826 9.53253607 -1 5 C-0.625 2.0625 -0.625 2.0625 0 0 Z " fill="#031C17" transform="translate(78,81)"/>
<path d="M0 0 C0.33 0.99 0.66 1.98 1 3 C-0.21484375 5.04296875 -0.21484375 5.04296875 -1.9375 7.1875 C-2.50339844 7.90292969 -3.06929688 8.61835937 -3.65234375 9.35546875 C-4.09707031 9.89816406 -4.54179687 10.44085938 -5 11 C-5.99 10.67 -6.98 10.34 -8 10 C-8 9.34 -8 8.68 -8 8 C-6.34997172 6.64613064 -4.6825613 5.31321858 -3 4 C-2.67 3.34 -2.34 2.68 -2 2 C-1.34 2 -0.68 2 0 2 C0 1.34 0 0.68 0 0 Z " fill="#021510" transform="translate(291,79)"/>
<path d="M0 0 C3 1 3 1 4.16796875 3.28515625 C4.50441406 4.20167969 4.84085938 5.11820313 5.1875 6.0625 C5.53167969 6.98160156 5.87585938 7.90070312 6.23046875 8.84765625 C6.48441406 9.55792969 6.73835937 10.26820312 7 11 C6.34 11.66 5.68 12.32 5 13 C3.35 8.71 1.7 4.42 0 0 Z " fill="#031C17" transform="translate(142,38)"/>
<path d="M0 0 C3.17218843 3.62535821 4.42902597 7.51150278 6 12 C5.01 12.495 5.01 12.495 4 13 C3.13633178 11.21289414 2.28431406 9.4201535 1.4375 7.625 C0.96183594 6.62726562 0.48617187 5.62953125 -0.00390625 4.6015625 C-0.49697266 3.31378906 -0.49697266 3.31378906 -1 2 C-0.67 1.34 -0.34 0.68 0 0 Z " fill="#021C15" transform="translate(182,49)"/>
<path d="M0 0 C0.99 0.33 1.98 0.66 3 1 C2.95875 1.78375 2.9175 2.5675 2.875 3.375 C2.71271266 6.16116119 2.71271266 6.16116119 5 8 C4.01 9.32 3.02 10.64 2 12 C0.86235649 7.73383684 0 4.43513689 0 0 Z " fill="#021C15" transform="translate(64,30)"/>
<path d="M0 0 C-0.33 0.66 -0.66 1.32 -1 2 C-3.31470912 2.72870472 -5.6505947 3.39239518 -8 4 C-8.99 4.33 -9.98 4.66 -11 5 C-10.03558469 2.58896173 -9.31202953 1.22595242 -7.1875 -0.3125 C-4.45808824 -1.17031512 -2.72321308 -0.75644808 0 0 Z " fill="#031B15" transform="translate(71,3)"/>
<path d="M0 0 C2 2 2 2 2 5 C-4.52307692 4.38461538 -4.52307692 4.38461538 -6.9375 2.4375 C-7.288125 1.963125 -7.63875 1.48875 -8 1 C-6.865625 1.020625 -5.73125 1.04125 -4.5625 1.0625 C-1.18424326 1.41577477 -1.18424326 1.41577477 0 0 Z " fill="#031E19" transform="translate(260,86)"/>
<path d="M0 0 C1.85772162 0.08984301 3.71247985 0.24611861 5.5625 0.4375 C7.08037109 0.59025391 7.08037109 0.59025391 8.62890625 0.74609375 C9.80259766 0.87177734 9.80259766 0.87177734 11 1 C11 1.66 11 2.32 11 3 C7.66666667 3 4.33333333 3 1 3 C0.34 2.34 -0.32 1.68 -1 1 C-0.67 0.67 -0.34 0.34 0 0 Z " fill="#011D15" transform="translate(457,78)"/>
<path d="M0 0 C0.66 0.33 1.32 0.66 2 1 C2 3 2 5 2 7 C2.99 7.33 3.98 7.66 5 8 C3.68 8.33 2.36 8.66 1 9 C-1.14809171 5.77786243 -1.29386153 4.72224599 -1 1 C-0.67 0.67 -0.34 0.34 0 0 Z " fill="#041D16" transform="translate(108,82)"/>
<path d="M0 0 C1.33333333 2.66666667 2.66666667 5.33333333 4 8 C3.01 9.32 2.02 10.64 1 12 C0.63896464 10.18885568 0.28634496 8.37603177 -0.0625 6.5625 C-0.25972656 5.55316406 -0.45695312 4.54382813 -0.66015625 3.50390625 C-0.77230469 2.67761719 -0.88445313 1.85132812 -1 1 C-0.67 0.67 -0.34 0.34 0 0 Z " fill="#031B16" transform="translate(62,18)"/>
<path d="M0 0 C0.99 0.33 1.98 0.66 3 1 C2.690625 1.53625 2.38125 2.0725 2.0625 2.625 C0.82172561 5.3984957 0.4090325 8.00042837 0 11 C-0.66 10.67 -1.32 10.34 -2 10 C-1.34 6.7 -0.68 3.4 0 0 Z " fill="#04201A" transform="translate(8,55)"/>
<path d="M0 0 C2 3 2 3 1.625 5.1875 C1.41875 5.785625 1.2125 6.38375 1 7 C-0.32 7.33 -1.64 7.66 -3 8 C-1.125 1.125 -1.125 1.125 0 0 Z " fill="#041F19" transform="translate(136,15)"/>
<path d="M0 0 C0.66 0.66 1.32 1.32 2 2 C1.7578125 4.1640625 1.7578125 4.1640625 1.125 6.625 C0.92132812 7.44226563 0.71765625 8.25953125 0.5078125 9.1015625 C0.34023438 9.72804688 0.17265625 10.35453125 0 11 C-0.66 11 -1.32 11 -2 11 C-1.125 3.375 -1.125 3.375 0 0 Z " fill="#041B16" transform="translate(20,7)"/>
<path d="M0 0 C0.99 0.33 1.98 0.66 3 1 C3.70211894 2.65204456 4.36971413 4.31923769 5 6 C5.66 6.33 6.32 6.66 7 7 C7 7.66 7 8.32 7 9 C3.17475764 7.549046 1.80909034 5.61818068 0 2 C0 1.34 0 0.68 0 0 Z " fill="#031D17" transform="translate(161,82)"/>
<path d="M0 0 C-1.76956458 2.14210449 -2.87575652 2.96060573 -5.5625 3.8125 C-6.7690625 3.9053125 -6.7690625 3.9053125 -8 4 C-8.66 3.34 -9.32 2.68 -10 2 C-3.375 -1.125 -3.375 -1.125 0 0 Z " fill="#021B16" transform="translate(478,76)"/>
<path d="M0 0 C0.268125 0.61875 0.53625 1.2375 0.8125 1.875 C1.95556848 4.2995233 1.95556848 4.2995233 5 6 C4.67 6.99 4.34 7.98 4 9 C2.35 7.68 0.7 6.36 -1 5 C-0.67 3.35 -0.34 1.7 0 0 Z " fill="#042018" transform="translate(41,54)"/>
<path d="M0 0 C0.66 0.33 1.32 0.66 2 1 C1.125 7.75 1.125 7.75 0 10 C-0.66 10 -1.32 10 -2 10 C-1.34 6.7 -0.68 3.4 0 0 Z " fill="#031E15" transform="translate(17,19)"/>
<path d="M0 0 C4 6 4 6 4 10 C3.01 9.67 2.02 9.34 1 9 C0.234375 7.1875 0.234375 7.1875 -0.25 5 C-0.42015625 4.278125 -0.5903125 3.55625 -0.765625 2.8125 C-0.84296875 2.214375 -0.9203125 1.61625 -1 1 C-0.67 0.67 -0.34 0.34 0 0 Z " fill="#031D16" transform="translate(148,17)"/>
<path d="M0 0 C0.33 0 0.66 0 1 0 C1.3125 2.1875 1.3125 2.1875 1 5 C-1.375 7.8125 -1.375 7.8125 -4 10 C-4.66 10 -5.32 10 -6 10 C-5.00102287 7.00306862 -4.34869747 5.97290587 -2 4 C-1.34 4 -0.68 4 0 4 C0 2.68 0 1.36 0 0 Z " fill="#021811" transform="translate(485,78)"/>
<path d="M0 0 C1.32 0 2.64 0 4 0 C5.60355101 3.50776784 6.22036864 6.14354879 6 10 C3.80633269 7.32944849 2.77828861 5.33552262 2 2 C1.34 1.34 0.68 0.68 0 0 Z " fill="#021511" transform="translate(380,33)"/>
<path d="M0 0 C0.66 0.66 1.32 1.32 2 2 C-0.5654594 4.5654594 -2.47686668 4.54046087 -6 5 C-6.33 4.34 -6.66 3.68 -7 3 C-6.401875 2.87625 -5.80375 2.7525 -5.1875 2.625 C-2.73768652 2.04524015 -2.73768652 2.04524015 0 0 Z " fill="#011A14" transform="translate(411,86)"/>
<path d="M0 0 C2.97 0.99 5.94 1.98 9 3 C9 3.33 9 3.66 9 4 C3.375 4.25 3.375 4.25 0 2 C0 1.34 0 0.68 0 0 Z " fill="#051B17" transform="translate(345,87)"/>
<path d="M0 0 C2.15377564 2.62198774 3.40072174 4.64404172 4 8 C3.01 8 2.02 8 1 8 C0.34 5.69 -0.32 3.38 -1 1 C-0.67 0.67 -0.34 0.34 0 0 Z " fill="#031C17" transform="translate(198,55)"/>
<path d="M0 0 C0.66 0.33 1.32 0.66 2 1 C0.375 6.75 0.375 6.75 -3 9 C-2.01 6.03 -1.02 3.06 0 0 Z " fill="#041D17" transform="translate(215,45)"/>
<path d="M0 0 C0.66 0 1.32 0 2 0 C2 0.66 2 1.32 2 2 C1.34 2 0.68 2 0 2 C-0.12375 2.804375 -0.2475 3.60875 -0.375 4.4375 C-0.58125 5.283125 -0.7875 6.12875 -1 7 C-1.99 7.495 -1.99 7.495 -3 8 C-2.25 2.25 -2.25 2.25 0 0 Z " fill="#041B16" transform="translate(179,32)"/>
<path d="M0 0 C3.1875 0.875 3.1875 0.875 6 2 C5.34 2.66 4.68 3.32 4 4 C1.69 3.34 -0.62 2.68 -3 2 C-2.01 1.34 -1.02 0.68 0 0 Z " fill="#021711" transform="translate(27,2)"/>
<path d="M0 0 C2.86697492 1.28519565 4.97607712 2.57129254 7 5 C7 5.66 7 6.32 7 7 C3.17053157 5.54744301 1.87949705 3.57104439 0 0 Z " fill="#031A14" transform="translate(477,36)"/>
<path d="M0 0 C1.5 1.125 1.5 1.125 3 3 C3.1875 6.1875 3.1875 6.1875 3 9 C2.34 8.67 1.68 8.34 1 8 C0.26924352 5.6859378 -0.40138258 3.35171131 -1 1 C-0.67 0.67 -0.34 0.34 0 0 Z " fill="#031B12" transform="translate(229,32)"/>
<path d="M0 0 C0.66 0.99 1.32 1.98 2 3 C-1.3 3 -4.6 3 -8 3 C-8 2.67 -8 2.34 -8 2 C-5.36 2 -2.72 2 0 2 C0 1.34 0 0.68 0 0 Z " fill="#000000" transform="translate(148,56)"/>
<path d="M0 0 C3.63 0 7.26 0 11 0 C11 0.33 11 0.66 11 1 C7.37 1 3.74 1 0 1 C0 0.67 0 0.34 0 0 Z " fill="#000000" transform="translate(458,93)"/>
<path d="M0 0 C3.3 0 6.6 0 10 0 C10 0.33 10 0.66 10 1 C6.7 1 3.4 1 0 1 C0 0.67 0 0.34 0 0 Z " fill="#000000" transform="translate(391,93)"/>
<path d="M0 0 C3.3 0 6.6 0 10 0 C10 0.33 10 0.66 10 1 C6.7 1 3.4 1 0 1 C0 0.67 0 0.34 0 0 Z " fill="#000000" transform="translate(264,93)"/>
<path d="M0 0 C0.33 0 0.66 0 1 0 C1 2.97 1 5.94 1 9 C0.67 9 0.34 9 0 9 C0 6.03 0 3.06 0 0 Z " fill="#000000" transform="translate(431,57)"/>
<path d="M0 0 C2.31 0 4.62 0 7 0 C7 0.33 7 0.66 7 1 C4.69 1 2.38 1 0 1 C0 0.67 0 0.34 0 0 Z " fill="#000707" transform="translate(150,75)"/>
<path d="M0 0 C0.33 0 0.66 0 1 0 C1 1.65 1 3.3 1 5 C0.67 5 0.34 5 0 5 C0 3.35 0 1.7 0 0 Z " fill="#000000" transform="translate(177,82)"/>
<path d="M0 0 C1.65 0 3.3 0 5 0 C5 0.33 5 0.66 5 1 C3.35 1 1.7 1 0 1 C0 0.67 0 0.34 0 0 Z " fill="#000000" transform="translate(461,77)"/>
<path d="M0 0 C1.65 0 3.3 0 5 0 C5 0.33 5 0.66 5 1 C3.35 1 1.7 1 0 1 C0 0.67 0 0.34 0 0 Z " fill="#000707" transform="translate(133,58)"/>
<path d="M0 0 C0.99 0.495 0.99 0.495 2 1 C1.67 1.99 1.34 2.98 1 4 C0.67 2.68 0.34 1.36 0 0 Z " fill="#000000" transform="translate(56,8)"/>
<path d="M0 0 C4 1 4 1 4 1 Z " fill="#000000" transform="translate(202,92)"/>
<path d="M0 0 C4 1 4 1 4 1 Z " fill="#000000" transform="translate(267,77)"/>
<path d="M0 0 C0 3 0 3 0 3 Z " fill="#000000" transform="translate(205,63)"/>
<path d="M0 0 C1 4 1 4 1 4 Z " fill="#000000" transform="translate(296,53)"/>
<path d="M0 0 C0.33 0.66 0.66 1.32 1 2 C0.01 1.67 -0.98 1.34 -2 1 C-1.34 0.67 -0.68 0.34 0 0 Z " fill="#000C0C" transform="translate(278,51)"/>
<path d="" fill="#000000" transform="translate(0,0)"/>
<path d="M0 0 C3 1 3 1 3 1 Z " fill="#000000" transform="translate(126,75)"/>
<path d="" fill="#000000" transform="translate(0,0)"/>
<path d="" fill="#000000" transform="translate(0,0)"/>
<path d="M0 0 C0.66 0.66 1.32 1.32 2 2 C1.34 2 0.68 2 0 2 C0 1.34 0 0.68 0 0 Z " fill="#001500" transform="translate(449,51)"/>
<path d="M0 0 C0.33 0.66 0.66 1.32 1 2 C0.34 1.67 -0.32 1.34 -1 1 C-0.67 0.67 -0.34 0.34 0 0 Z " fill="#000000" transform="translate(472,51)"/>
<path d="" fill="#000000" transform="translate(0,0)"/>
<path d="M0 0 C2 1 2 1 2 1 Z " fill="#000000" transform="translate(471,92)"/>
<path d="M0 0 C2 1 2 1 2 1 Z " fill="#000000" transform="translate(312,92)"/>
<path d="M0 0 C2 1 2 1 2 1 Z " fill="#000000" transform="translate(259,92)"/>
<path d="M0 0 C2 1 2 1 2 1 Z " fill="#000000" transform="translate(166,92)"/>
<path d="M0 0 C2 1 2 1 2 1 Z " fill="#000000" transform="translate(474,91)"/>
<path d="" fill="#000000" transform="translate(0,0)"/>
<path d="" fill="#000000" transform="translate(0,0)"/>
<path d="" fill="#000000" transform="translate(0,0)"/>
<path d="" fill="#000000" transform="translate(0,0)"/>
<path d="" fill="#000000" transform="translate(0,0)"/>
<path d="" fill="#000000" transform="translate(0,0)"/>
<path d="" fill="#000000" transform="translate(0,0)"/>
<path d="" fill="#000000" transform="translate(0,0)"/>
<path d="" fill="#000000" transform="translate(0,0)"/>
<path d="M0 0 C2 1 2 1 2 1 Z " fill="#000000" transform="translate(396,77)"/>
<path d="M0 0 C2 1 2 1 2 1 Z " fill="#000000" transform="translate(457,76)"/>
<path d="" fill="#000000" transform="translate(0,0)"/>
<path d="M0 0 C2 1 2 1 2 1 Z " fill="#000000" transform="translate(391,76)"/>
<path d="" fill="#000000" transform="translate(0,0)"/>
<path d="M0 0 C2 1 2 1 2 1 Z " fill="#000000" transform="translate(260,75)"/>
<path d="M0 0 C2 1 2 1 2 1 Z " fill="#000000" transform="translate(147,75)"/>
<path d="" fill="#000000" transform="translate(0,0)"/>
<path d="" fill="#000000" transform="translate(0,0)"/>
<path d="" fill="#000000" transform="translate(0,0)"/>
<path d="" fill="#000000" transform="translate(0,0)"/>
<path d="" fill="#000000" transform="translate(0,0)"/>
<path d="" fill="#000000" transform="translate(0,0)"/>
<path d="" fill="#000000" transform="translate(0,0)"/>
<path d="" fill="#000000" transform="translate(0,0)"/>
<path d="" fill="#000000" transform="translate(0,0)"/>
<path d="" fill="#000000" transform="translate(0,0)"/>
<path d="" fill="#000000" transform="translate(0,0)"/>
<path d="M0 0 C2 1 2 1 2 1 Z " fill="#000000" transform="translate(483,67)"/>
<path d="M0 0 C2 1 2 1 2 1 Z " fill="#000000" transform="translate(289,67)"/>
<path d="" fill="#000000" transform="translate(0,0)"/>
<path d="" fill="#000000" transform="translate(0,0)"/>
<path d="" fill="#000000" transform="translate(0,0)"/>
<path d="" fill="#000000" transform="translate(0,0)"/>
<path d="" fill="#000000" transform="translate(0,0)"/>
<path d="" fill="#000000" transform="translate(0,0)"/>
<path d="" fill="#000000" transform="translate(0,0)"/>
<path d="" fill="#000000" transform="translate(0,0)"/>
<path d="" fill="#000000" transform="translate(0,0)"/>
<path d="" fill="#000000" transform="translate(0,0)"/>
<path d="" fill="#000000" transform="translate(0,0)"/>
<path d="" fill="#000000" transform="translate(0,0)"/>
<path d="" fill="#000000" transform="translate(0,0)"/>
<path d="" fill="#000000" transform="translate(0,0)"/>
<path d="" fill="#000000" transform="translate(0,0)"/>
<path d="" fill="#000000" transform="translate(0,0)"/>
<path d="" fill="#000000" transform="translate(0,0)"/>
<path d="" fill="#000000" transform="translate(0,0)"/>
<path d="" fill="#000000" transform="translate(0,0)"/>
<path d="" fill="#000000" transform="translate(0,0)"/>
<path d="" fill="#000000" transform="translate(0,0)"/>
<path d="" fill="#000000" transform="translate(0,0)"/>
<path d="" fill="#000000" transform="translate(0,0)"/>
<path d="" fill="#000000" transform="translate(0,0)"/>
<path d="" fill="#000000" transform="translate(0,0)"/>
<path d="" fill="#000000" transform="translate(0,0)"/>
<path d="" fill="#000000" transform="translate(0,0)"/>
<path d="" fill="#000000" transform="translate(0,0)"/>
<path d="" fill="#000000" transform="translate(0,0)"/>
<path d="M0 0 C2 1 2 1 2 1 Z " fill="#000000" transform="translate(456,45)"/>
<path d="M0 0 C2 1 2 1 2 1 Z " fill="#000000" transform="translate(328,45)"/>
<path d="M0 0 C2 1 2 1 2 1 Z " fill="#000000" transform="translate(261,45)"/>
<path d="" fill="#000000" transform="translate(0,0)"/>
<path d="" fill="#000000" transform="translate(0,0)"/>
<path d="" fill="#000000" transform="translate(0,0)"/>
<path d="" fill="#001F1F" transform="translate(0,0)"/>
<path d="" fill="#000000" transform="translate(0,0)"/>
<path d="M0 0 C2 1 2 1 2 1 Z " fill="#000000" transform="translate(50,36)"/>
<path d="M0 0 C2 1 2 1 2 1 Z " fill="#000000" transform="translate(46,35)"/>
<path d="" fill="#000000" transform="translate(0,0)"/>
<path d="" fill="#000000" transform="translate(0,0)"/>
<path d="M0 0 C2 1 2 1 2 1 Z " fill="#000000" transform="translate(48,29)"/>
<path d="" fill="#000000" transform="translate(0,0)"/>
<path d="" fill="#000000" transform="translate(0,0)"/>
<path d="" fill="#000000" transform="translate(0,0)"/>
<path d="" fill="#000000" transform="translate(0,0)"/>
<path d="" fill="#000000" transform="translate(0,0)"/>
<path d="" fill="#000000" transform="translate(0,0)"/>
<path d="" fill="#000000" transform="translate(0,0)"/>
<path d="" fill="#000000" transform="translate(0,0)"/>
<path d="M0 0 C2 1 2 1 2 1 Z " fill="#000000" transform="translate(68,1)"/>
<path d="M0 0 C2 1 2 1 2 1 Z " fill="#000000" transform="translate(64,1)"/>
<path d="M0 0 C2 1 2 1 2 1 Z " fill="#000000" transform="translate(49,1)"/>
<path d="M0 0 C2 1 2 1 2 1 Z " fill="#000000" transform="translate(44,1)"/>
<path d="M0 0 C2 1 2 1 2 1 Z " fill="#000000" transform="translate(29,1)"/>
<path d="" fill="#000000" transform="translate(0,0)"/>
<path d="" fill="#000000" transform="translate(0,0)"/>
<path d="" fill="#000000" transform="translate(0,0)"/>
<path d="" fill="#000000" transform="translate(0,0)"/>
<path d="" fill="#000000" transform="translate(0,0)"/>
<path d="" fill="#000000" transform="translate(0,0)"/>
<path d="" fill="#000000" transform="translate(0,0)"/>
<path d="" fill="#000000" transform="translate(0,0)"/>
<path d="" fill="#000000" transform="translate(0,0)"/>
<path d="" fill="#000000" transform="translate(0,0)"/>
<path d="" fill="#000000" transform="translate(0,0)"/>
<path d="" fill="#000000" transform="translate(0,0)"/>
<path d="" fill="#000000" transform="translate(0,0)"/>
<path d="" fill="#000000" transform="translate(0,0)"/>
<path d="" fill="#000000" transform="translate(0,0)"/>
<path d="" fill="#000000" transform="translate(0,0)"/>
<path d="" fill="#000000" transform="translate(0,0)"/>
<path d="" fill="#000000" transform="translate(0,0)"/>
<path d="" fill="#000000" transform="translate(0,0)"/>
<path d="" fill="#000000" transform="translate(0,0)"/>
<path d="" fill="#000000" transform="translate(0,0)"/>
<path d="" fill="#000000" transform="translate(0,0)"/>
<path d="" fill="#000000" transform="translate(0,0)"/>
<path d="" fill="#000000" transform="translate(0,0)"/>
<path d="" fill="#000000" transform="translate(0,0)"/>
<path d="" fill="#000000" transform="translate(0,0)"/>
<path d="" fill="#000000" transform="translate(0,0)"/>
<path d="" fill="#000000" transform="translate(0,0)"/>
<path d="" fill="#000000" transform="translate(0,0)"/>
<path d="" fill="#000000" transform="translate(0,0)"/>
<path d="" fill="#000000" transform="translate(0,0)"/>
<path d="" fill="#000000" transform="translate(0,0)"/>
<path d="" fill="#000000" transform="translate(0,0)"/>
<path d="" fill="#000000" transform="translate(0,0)"/>
<path d="" fill="#000000" transform="translate(0,0)"/>
<path d="" fill="#000000" transform="translate(0,0)"/>
<path d="" fill="#000000" transform="translate(0,0)"/>
<path d="" fill="#000000" transform="translate(0,0)"/>
<path d="" fill="#000000" transform="translate(0,0)"/>
<path d="" fill="#000000" transform="translate(0,0)"/>
<path d="" fill="#000000" transform="translate(0,0)"/>
<path d="" fill="#000000" transform="translate(0,0)"/>
<path d="" fill="#000000" transform="translate(0,0)"/>
<path d="" fill="#000000" transform="translate(0,0)"/>
<path d="" fill="#000000" transform="translate(0,0)"/>
<path d="" fill="#000000" transform="translate(0,0)"/>
<path d="" fill="#000000" transform="translate(0,0)"/>
<path d="" fill="#000000" transform="translate(0,0)"/>
<path d="" fill="#000000" transform="translate(0,0)"/>
<path d="" fill="#000000" transform="translate(0,0)"/>
<path d="" fill="#000000" transform="translate(0,0)"/>
<path d="" fill="#000000" transform="translate(0,0)"/>
<path d="" fill="#000000" transform="translate(0,0)"/>
<path d="" fill="#000000" transform="translate(0,0)"/>
<path d="" fill="#000000" transform="translate(0,0)"/>
<path d="" fill="#000000" transform="translate(0,0)"/>
<path d="" fill="#000000" transform="translate(0,0)"/>
<path d="" fill="#000000" transform="translate(0,0)"/>
<path d="" fill="#000000" transform="translate(0,0)"/>
<path d="" fill="#000000" transform="translate(0,0)"/>
<path d="" fill="#000000" transform="translate(0,0)"/>
<path d="" fill="#000000" transform="translate(0,0)"/>
<path d="" fill="#000000" transform="translate(0,0)"/>
<path d="" fill="#000000" transform="translate(0,0)"/>
<path d="" fill="#000000" transform="translate(0,0)"/>
<path d="" fill="#000000" transform="translate(0,0)"/>
<path d="" fill="#000000" transform="translate(0,0)"/>
<path d="" fill="#000000" transform="translate(0,0)"/>
<path d="" fill="#000000" transform="translate(0,0)"/>
<path d="" fill="#000000" transform="translate(0,0)"/>
<path d="" fill="#000000" transform="translate(0,0)"/>
<path d="" fill="#000000" transform="translate(0,0)"/>
<path d="" fill="#000000" transform="translate(0,0)"/>
<path d="" fill="#000000" transform="translate(0,0)"/>
<path d="" fill="#000000" transform="translate(0,0)"/>
<path d="" fill="#000000" transform="translate(0,0)"/>
<path d="" fill="#000000" transform="translate(0,0)"/>
<path d="" fill="#000000" transform="translate(0,0)"/>
<path d="" fill="#000000" transform="translate(0,0)"/>
<path d="" fill="#000000" transform="translate(0,0)"/>
<path d="" fill="#000000" transform="translate(0,0)"/>
<path d="" fill="#000000" transform="translate(0,0)"/>
<path d="" fill="#000000" transform="translate(0,0)"/>
<path d="" fill="#000000" transform="translate(0,0)"/>
<path d="" fill="#000000" transform="translate(0,0)"/>
<path d="" fill="#000000" transform="translate(0,0)"/>
<path d="" fill="#000000" transform="translate(0,0)"/>
<path d="" fill="#000000" transform="translate(0,0)"/>
<path d="" fill="#000000" transform="translate(0,0)"/>
<path d="" fill="#000000" transform="translate(0,0)"/>
<path d="" fill="#000000" transform="translate(0,0)"/>
<path d="" fill="#000000" transform="translate(0,0)"/>
<path d="" fill="#000000" transform="translate(0,0)"/>
<path d="" fill="#000000" transform="translate(0,0)"/>
<path d="" fill="#000000" transform="translate(0,0)"/>
<path d="" fill="#000000" transform="translate(0,0)"/>
<path d="" fill="#000000" transform="translate(0,0)"/>
<path d="" fill="#000000" transform="translate(0,0)"/>
<path d="" fill="#000000" transform="translate(0,0)"/>
<path d="" fill="#000000" transform="translate(0,0)"/>
<path d="" fill="#000000" transform="translate(0,0)"/>
<path d="" fill="#000000" transform="translate(0,0)"/>
<path d="" fill="#000000" transform="translate(0,0)"/>
<path d="" fill="#000000" transform="translate(0,0)"/>
<path d="" fill="#000000" transform="translate(0,0)"/>
<path d="" fill="#000000" transform="translate(0,0)"/>
<path d="" fill="#000000" transform="translate(0,0)"/>
<path d="" fill="#000000" transform="translate(0,0)"/>
<path d="" fill="#000000" transform="translate(0,0)"/>
<path d="" fill="#000000" transform="translate(0,0)"/>
<path d="" fill="#000000" transform="translate(0,0)"/>
<path d="" fill="#000000" transform="translate(0,0)"/>
<path d="" fill="#000000" transform="translate(0,0)"/>
<path d="" fill="#000000" transform="translate(0,0)"/>
<path d="" fill="#000000" transform="translate(0,0)"/>
<path d="" fill="#000000" transform="translate(0,0)"/>
<path d="" fill="#000000" transform="translate(0,0)"/>
<path d="" fill="#000000" transform="translate(0,0)"/>
<path d="" fill="#000000" transform="translate(0,0)"/>
<path d="" fill="#000000" transform="translate(0,0)"/>
<path d="" fill="#000000" transform="translate(0,0)"/>
<path d="" fill="#000000" transform="translate(0,0)"/>
<path d="" fill="#000000" transform="translate(0,0)"/>
<path d="" fill="#000000" transform="translate(0,0)"/>
<path d="" fill="#000000" transform="translate(0,0)"/>
<path d="" fill="#000000" transform="translate(0,0)"/>
<path d="" fill="#000000" transform="translate(0,0)"/>
<path d="" fill="#000000" transform="translate(0,0)"/>
<path d="" fill="#000000" transform="translate(0,0)"/>
<path d="" fill="#000000" transform="translate(0,0)"/>
<path d="" fill="#000000" transform="translate(0,0)"/>
<path d="" fill="#000000" transform="translate(0,0)"/>
<path d="" fill="#000000" transform="translate(0,0)"/>
<path d="" fill="#000000" transform="translate(0,0)"/>
<path d="" fill="#000000" transform="translate(0,0)"/>
<path d="" fill="#000000" transform="translate(0,0)"/>
<path d="" fill="#000000" transform="translate(0,0)"/>
<path d="" fill="#000000" transform="translate(0,0)"/>
<path d="" fill="#000000" transform="translate(0,0)"/>
<path d="" fill="#000000" transform="translate(0,0)"/>
<path d="" fill="#000000" transform="translate(0,0)"/>
<path d="" fill="#000000" transform="translate(0,0)"/>
<path d="" fill="#000000" transform="translate(0,0)"/>
<path d="" fill="#000000" transform="translate(0,0)"/>
<path d="" fill="#000000" transform="translate(0,0)"/>
<path d="" fill="#000000" transform="translate(0,0)"/>
<path d="" fill="#000000" transform="translate(0,0)"/>
<path d="" fill="#000000" transform="translate(0,0)"/>
<path d="" fill="#000000" transform="translate(0,0)"/>
<path d="" fill="#000000" transform="translate(0,0)"/>
<path d="" fill="#000000" transform="translate(0,0)"/>
<path d="" fill="#000000" transform="translate(0,0)"/>
<path d="" fill="#000000" transform="translate(0,0)"/>
<path d="" fill="#000000" transform="translate(0,0)"/>
<path d="" fill="#000000" transform="translate(0,0)"/>
<path d="" fill="#000000" transform="translate(0,0)"/>
<path d="" fill="#000000" transform="translate(0,0)"/>
<path d="" fill="#000000" transform="translate(0,0)"/>
<path d="" fill="#000000" transform="translate(0,0)"/>
<path d="" fill="#00003F" transform="translate(0,0)"/>
<path d="" fill="#000000" transform="translate(0,0)"/>
<path d="" fill="#000000" transform="translate(0,0)"/>
<path d="" fill="#000000" transform="translate(0,0)"/>
<path d="" fill="#000000" transform="translate(0,0)"/>
<path d="" fill="#000000" transform="translate(0,0)"/>
<path d="" fill="#000000" transform="translate(0,0)"/>
<path d="" fill="#000000" transform="translate(0,0)"/>
<path d="" fill="#000000" transform="translate(0,0)"/>
<path d="" fill="#000000" transform="translate(0,0)"/>
<path d="" fill="#000000" transform="translate(0,0)"/>
<path d="" fill="#000000" transform="translate(0,0)"/>
<path d="" fill="#000000" transform="translate(0,0)"/>
<path d="" fill="#000000" transform="translate(0,0)"/>
<path d="" fill="#000000" transform="translate(0,0)"/>
<path d="" fill="#000000" transform="translate(0,0)"/>
<path d="" fill="#000000" transform="translate(0,0)"/>
<path d="" fill="#000000" transform="translate(0,0)"/>
<path d="" fill="#000000" transform="translate(0,0)"/>
<path d="" fill="#000000" transform="translate(0,0)"/>
<path d="" fill="#000000" transform="translate(0,0)"/>
<path d="" fill="#000000" transform="translate(0,0)"/>
<path d="" fill="#000000" transform="translate(0,0)"/>
<path d="" fill="#000000" transform="translate(0,0)"/>
<path d="" fill="#000000" transform="translate(0,0)"/>
<path d="" fill="#000000" transform="translate(0,0)"/>
<path d="" fill="#000000" transform="translate(0,0)"/>
<path d="" fill="#000000" transform="translate(0,0)"/>
<path d="" fill="#000000" transform="translate(0,0)"/>
<path d="" fill="#000000" transform="translate(0,0)"/>
<path d="" fill="#000000" transform="translate(0,0)"/>
<path d="" fill="#000000" transform="translate(0,0)"/>
<path d="" fill="#000000" transform="translate(0,0)"/>
<path d="" fill="#000000" transform="translate(0,0)"/>
<path d="" fill="#000000" transform="translate(0,0)"/>
<path d="" fill="#000000" transform="translate(0,0)"/>
<path d="" fill="#000000" transform="translate(0,0)"/>
<path d="" fill="#000000" transform="translate(0,0)"/>
<path d="" fill="#000000" transform="translate(0,0)"/>
<path d="" fill="#000000" transform="translate(0,0)"/>
<path d="" fill="#000000" transform="translate(0,0)"/>
<path d="" fill="#000000" transform="translate(0,0)"/>
<path d="" fill="#000000" transform="translate(0,0)"/>
<path d="" fill="#000000" transform="translate(0,0)"/>
<path d="" fill="#000000" transform="translate(0,0)"/>
<path d="" fill="#000000" transform="translate(0,0)"/>
<path d="" fill="#000000" transform="translate(0,0)"/>
<path d="" fill="#000000" transform="translate(0,0)"/>
<path d="" fill="#000000" transform="translate(0,0)"/>
<path d="" fill="#000000" transform="translate(0,0)"/>
<path d="" fill="#000000" transform="translate(0,0)"/>
<path d="" fill="#000000" transform="translate(0,0)"/>
<path d="" fill="#000000" transform="translate(0,0)"/>
<path d="" fill="#000000" transform="translate(0,0)"/>
<path d="" fill="#000000" transform="translate(0,0)"/>
<path d="" fill="#000000" transform="translate(0,0)"/>
<path d="" fill="#000000" transform="translate(0,0)"/>
<path d="" fill="#000000" transform="translate(0,0)"/>
<path d="" fill="#000000" transform="translate(0,0)"/>
<path d="" fill="#000000" transform="translate(0,0)"/>
<path d="" fill="#000000" transform="translate(0,0)"/>
<path d="" fill="#000000" transform="translate(0,0)"/>
<path d="" fill="#000000" transform="translate(0,0)"/>
<path d="" fill="#000000" transform="translate(0,0)"/>
<path d="" fill="#000000" transform="translate(0,0)"/>
<path d="" fill="#000000" transform="translate(0,0)"/>
<path d="" fill="#000000" transform="translate(0,0)"/>
<path d="" fill="#000000" transform="translate(0,0)"/>
<path d="" fill="#000000" transform="translate(0,0)"/>
<path d="" fill="#000000" transform="translate(0,0)"/>
<path d="" fill="#000000" transform="translate(0,0)"/>
</svg>
