<?xml version="1.0" encoding="UTF-8"?>
<svg version="1.1" xmlns="http://www.w3.org/2000/svg" width="491" height="100">
<path d="M0 0 C1.375 2.0625 1.375 2.0625 2 4 C3.010625 3.54625 4.02125 3.0925 5.0625 2.625 C14.48337609 -1.35270324 14.48337609 -1.35270324 18.6875 -0.375 C21.21834718 1.12982805 23.03521489 2.81690543 25 5 C25 4.34 25 3.68 25 3 C26.32 2.34 27.64 1.68 29 1 C29 0.34 29 -0.32 29 -1 C30.58421738 -0.96674353 32.16769377 -0.89710308 33.75 -0.8125 C34.63171875 -0.77769531 35.5134375 -0.74289063 36.421875 -0.70703125 C40.12371174 0.30816943 40.90233566 1.76938472 43 5 C44.2633375 8.49200232 45.13738909 12.05855555 46.015625 15.6640625 C46.40666412 17.20759903 46.40666412 17.20759903 46.80560303 18.78231812 C47.35261137 20.95103734 47.8935227 23.12130239 48.42871094 25.29296875 C49.249542 28.62314188 50.08789574 31.9485074 50.9296875 35.2734375 C51.45935415 37.3825564 51.98803422 39.49192337 52.515625 41.6015625 C52.76556213 42.598461 53.01549927 43.5953595 53.27301025 44.62246704 C53.61401764 46.00938248 53.61401764 46.00938248 53.96191406 47.42431641 C54.16302795 48.2375235 54.36414185 49.05073059 54.5713501 49.88858032 C55 52 55 52 55 55 C55.66 55.33 56.32 55.66 57 56 C56.505 56.99 56.505 56.99 56 58 C56.66 58 57.32 58 58 58 C57.67 59.32 57.34 60.64 57 62 C57.66 62 58.32 62 59 62 C58.67 63.65 58.34 65.3 58 67 C58.66 67.33 59.32 67.66 60 68 C59.67 68.66 59.34 69.32 59 70 C59.66 70 60.32 70 61 70 C60.505 71.98 60.505 71.98 60 74 C60.66 74 61.32 74 62 74 C61.505 75.98 61.505 75.98 61 78 C61.66 78 62.32 78 63 78 C62.505 79.98 62.505 79.98 62 82 C62.66 82.33 63.32 82.66 64 83 C63.34 83 62.68 83 62 83 C62.20625 83.7425 62.4125 84.485 62.625 85.25 C63.05165026 88.37876854 62.76804332 89.43633719 61 92 C57.32209331 94.45193779 54.27407725 94.71511798 50 94 C47 92 47 92 45 90 C45.33 89.34 45.66 88.68 46 88 C45.34 87.67 44.68 87.34 44 87 C44.33 86.34 44.66 85.68 45 85 C44.34 85 43.68 85 43 85 C43.33 83.35 43.66 81.7 44 80 C43.34 79.67 42.68 79.34 42 79 C42.33 78.34 42.66 77.68 43 77 C42.34 76.67 41.68 76.34 41 76 C41.33 75.67 41.66 75.34 42 75 C41.74664647 71.97980236 41.74664647 71.97980236 41 69 C40.34 68.67 39.68 68.34 39 68 C39.495 66.02 39.495 66.02 40 64 C39.34 63.67 38.68 63.34 38 63 C38.495 62.01 38.495 62.01 39 61 C38.34 60.67 37.68 60.34 37 60 C37.33 59.67 37.66 59.34 38 59 C37.71325582 56.99279077 37.38133299 54.9914056 37 53 C36.34 53 35.68 53 35 53 C35.33 51.35 35.66 49.7 36 48 C35.34 47.67 34.68 47.34 34 47 C34.495 46.01 34.495 46.01 35 45 C34.34 44.67 33.68 44.34 33 44 C33.33 43.67 33.66 43.34 34 43 C33.66092134 40.97516224 33.66092134 40.97516224 33.00390625 38.59765625 C32.77509766 37.70755859 32.54628906 36.81746094 32.31054688 35.90039062 C32.06369141 34.96388672 31.81683594 34.02738281 31.5625 33.0625 C31.08260771 31.22057919 30.60464743 29.3781536 30.12890625 27.53515625 C29.91306885 26.714104 29.69723145 25.89305176 29.47485352 25.04711914 C29 23 29 23 29 21 C28.34 21 27.68 21 27 21 C27 18.36 27 15.72 27 13 C26.34 12.67 25.68 12.34 25 12 C25.33 11.01 25.66 10.02 26 9 C25.34 9 24.68 9 24 9 C23.67 11.97 23.34 14.94 23 18 C23.66 18 24.32 18 25 18 C25 20 25 20 22.5 22.625 C19.91865089 24.70356852 18.1267751 25.37011178 14.8125 25.4375 C11 25 11 25 8 23 C8 22.34 8 21.68 8 21 C7.01 20.67 6.02 20.34 5 20 C5.495 19.505 5.495 19.505 6 19 C6.07258946 16.81360547 6.08373783 14.62499611 6.0625 12.4375 C6.05347656 11.23996094 6.04445312 10.04242188 6.03515625 8.80859375 C6.02355469 7.88175781 6.01195312 6.95492188 6 6 C5.34 6 4.68 6 4 6 C3.06213918 11.05009595 3.06213918 11.05009595 4 16 C3.01 16.495 3.01 16.495 2 17 C2.495 18.485 2.495 18.485 3 20 C2.01 20.495 2.01 20.495 1 21 C1.495 21.99 1.495 21.99 2 23 C1.34 23 0.68 23 0 23 C0.495 24.98 0.495 24.98 1 27 C0.34 27 -0.32 27 -1 27 C-0.67 28.32 -0.34 29.64 0 31 C-0.66 31 -1.32 31 -2 31 C-2.93380961 35.53140653 -2.93380961 35.53140653 -2 40 C-2.99 40.495 -2.99 40.495 -4 41 C-3.67 41.99 -3.34 42.98 -3 44 C-3.99 44.495 -3.99 44.495 -5 45 C-4.67 45.99 -4.34 46.98 -4 48 C-4.99 48.495 -4.99 48.495 -6 49 C-5.67 49.99 -5.34 50.98 -5 52 C-5.99 52.495 -5.99 52.495 -7 53 C-6.67 53.99 -6.34 54.98 -6 56 C-6.99 56.495 -6.99 56.495 -8 57 C-7.67 57.66 -7.34 58.32 -7 59 C-7.66 59 -8.32 59 -9 59 C-9.36237263 60.62318979 -9.71465157 62.2486358 -10.0625 63.875 C-10.25972656 64.77992187 -10.45695312 65.68484375 -10.66015625 66.6171875 C-11.23202157 69.01014125 -11.23202157 69.01014125 -10 71 C-10.66 71 -11.32 71 -12 71 C-11.67 72.32 -11.34 73.64 -11 75 C-11.66 75 -12.32 75 -13 75 C-13.38091797 76.66289062 -13.38091797 76.66289062 -13.76953125 78.359375 C-14.11668178 79.8230367 -14.46436615 81.28657187 -14.8125 82.75 C-14.97814453 83.47960937 -15.14378906 84.20921875 -15.31445312 84.9609375 C-16.2723662 88.93718044 -17.16024292 91.90800089 -20 95 C-21.6266848 94.71788123 -23.25132896 94.42397625 -24.875 94.125 C-25.77992187 93.96257812 -26.68484375 93.80015625 -27.6171875 93.6328125 C-30 93 -30 93 -32 91 C-32.265625 87.953125 -32.265625 87.953125 -32.25 84.25 C-32.25515625 83.03828125 -32.2603125 81.8265625 -32.265625 80.578125 C-32.00398784 77.05371852 -31.14487001 74.31818258 -30 71 C-30.33 70.34 -30.66 69.68 -31 69 C-30.34 69 -29.68 69 -29 69 C-27.98459888 64.89776415 -27.98459888 64.89776415 -29 61 C-28.34 61 -27.68 61 -27 61 C-25.98459888 56.89776415 -25.98459888 56.89776415 -27 53 C-26.34 53 -25.68 53 -25 53 C-23.98459888 48.89776415 -23.98459888 48.89776415 -25 45 C-24.34 45 -23.68 45 -23 45 C-22.78085937 43.96746094 -22.56171875 42.93492188 -22.3359375 41.87109375 C-20.37334699 32.75393028 -18.25765679 23.67356787 -16 14.625 C-15.7632959 13.63298584 -15.5265918 12.64097168 -15.28271484 11.61889648 C-13.04554686 2.82872222 -13.04554686 2.82872222 -9 0 C-5.44712603 -1.18429132 -3.58589143 -0.99184231 0 0 Z " fill="#FBD7E0" transform="translate(32,3)"/>
<path d="M0 0 C2.96522022 0.722808 4.0492829 2.19261281 6.03515625 4.49609375 C7.54321289 7.56469727 7.54321289 7.56469727 8.9453125 11.125 C9.19889023 11.75591049 9.45246796 12.38682098 9.71372986 13.03684998 C10.51814515 15.04036515 11.30911268 17.04878398 12.09765625 19.05859375 C12.89066088 21.07156846 13.68670301 23.08307631 14.49229431 25.09104919 C15.22165054 26.90982396 15.93938139 28.73324789 16.65649414 30.55688477 C17.88760804 33.18153152 18.82929564 34.67675611 21.03515625 36.49609375 C20.54015625 37.48609375 20.54015625 37.48609375 20.03515625 38.49609375 C20.50953125 38.92921875 20.98390625 39.36234375 21.47265625 39.80859375 C23.03515625 41.49609375 23.03515625 41.49609375 24.03515625 44.49609375 C23.70515625 44.82609375 23.37515625 45.15609375 23.03515625 45.49609375 C23.50050781 45.91503906 23.96585938 46.33398438 24.4453125 46.765625 C26.50186756 49.00408665 27.22488832 51.47419503 28.21484375 54.30859375 C29.04515956 56.52276923 30.02146842 58.57904867 31.09765625 60.68359375 C35.75467742 69.81920616 35.75467742 69.81920616 35.03515625 74.49609375 C32.78737085 77.28644804 31.45785609 78.3551938 28.03515625 79.49609375 C24.05080251 79.32286098 22.37197809 78.7793303 19.28515625 76.18359375 C16.45178813 72.79929294 15.03515625 70.93168702 15.03515625 66.49609375 C12.46969685 63.93063435 10.55828957 63.95563288 7.03515625 63.49609375 C7.03515625 63.16609375 7.03515625 62.83609375 7.03515625 62.49609375 C0.10515625 62.49609375 -6.82484375 62.49609375 -13.96484375 62.49609375 C-13.96484375 62.82609375 -13.96484375 63.15609375 -13.96484375 63.49609375 C-15.61484375 63.49609375 -17.26484375 63.49609375 -18.96484375 63.49609375 C-18.90296875 64.42421875 -18.84109375 65.35234375 -18.77734375 66.30859375 C-18.96484375 69.49609375 -18.96484375 69.49609375 -20.46484375 71.18359375 C-20.95984375 71.61671875 -21.45484375 72.04984375 -21.96484375 72.49609375 C-21.96484375 73.48609375 -21.96484375 74.47609375 -21.96484375 75.49609375 C-24.96489008 78.49614008 -27.80310524 79.14190324 -31.96484375 79.49609375 C-32.95484375 79.16609375 -33.94484375 78.83609375 -34.96484375 78.49609375 C-34.96484375 77.83609375 -34.96484375 77.17609375 -34.96484375 76.49609375 C-35.95484375 76.16609375 -36.94484375 75.83609375 -37.96484375 75.49609375 C-37.79984375 74.73296875 -37.63484375 73.96984375 -37.46484375 73.18359375 C-36.87338979 70.46013139 -36.87338979 70.46013139 -36.96484375 67.49609375 C-36.63484375 66.50609375 -36.30484375 65.51609375 -35.96484375 64.49609375 C-34.97484375 64.00109375 -34.97484375 64.00109375 -33.96484375 63.49609375 C-33.96484375 62.17609375 -33.96484375 60.85609375 -33.96484375 59.49609375 C-32.98545585 58.47589802 -31.98588926 57.4745957 -30.96484375 56.49609375 C-30.96484375 55.50609375 -30.96484375 54.51609375 -30.96484375 53.49609375 C-30.30484375 52.83609375 -29.64484375 52.17609375 -28.96484375 51.49609375 C-28.96484375 50.50609375 -28.96484375 49.51609375 -28.96484375 48.49609375 C-27.97256238 47.15700621 -26.97104117 45.82475643 -25.96484375 44.49609375 C-24.9961912 42.41649286 -24.08801962 40.30825228 -23.22265625 38.18359375 C-22.97240692 37.57402832 -22.72215759 36.96446289 -22.46432495 36.33642578 C-21.66737297 34.39182698 -20.87842593 32.44409964 -20.08984375 30.49609375 C-19.56824975 29.21852882 -19.04611876 27.94118299 -18.5234375 26.6640625 C-18.26681335 26.03636963 -18.01018921 25.40867676 -17.74578857 24.76196289 C-17.23167055 23.50457152 -16.71738915 22.24724694 -16.20294189 20.98999023 C-14.9789073 17.99478417 -13.76642431 14.99593753 -12.57324219 11.98828125 C-12.14301758 10.91835938 -11.71279297 9.8484375 -11.26953125 8.74609375 C-10.89554199 7.8025 -10.52155273 6.85890625 -10.13623047 5.88671875 C-7.66208063 0.83734918 -5.64944747 0.16327883 0 0 Z M-3.96484375 28.49609375 C-4.61479672 29.9108751 -5.25963097 31.32800862 -5.90234375 32.74609375 C-6.26199219 33.535 -6.62164062 34.32390625 -6.9921875 35.13671875 C-7.99489504 37.38539873 -7.99489504 37.38539873 -8.40625 39.41796875 C-8.96484375 41.49609375 -8.96484375 41.49609375 -11.96484375 47.49609375 C-5.69484375 47.49609375 0.57515625 47.49609375 7.03515625 47.49609375 C5.57365434 43.11158801 4.10367158 39.54693628 2.03515625 35.49609375 C1.35548949 33.83468612 0.6857672 32.16909334 0.03515625 30.49609375 C-0.29484375 29.83609375 -0.62484375 29.17609375 -0.96484375 28.49609375 C-1.95484375 28.49609375 -2.94484375 28.49609375 -3.96484375 28.49609375 Z " fill="#FBD7DF" transform="translate(142.96484375,12.50390625)"/>
<path d="M0 0 C5.96447353 4.28299961 10.79658783 9.36436051 14 16 C14.66 16.66 15.32 17.32 16 18 C15.505 19.485 15.505 19.485 15 21 C15.66 21 16.32 21 17 21 C17 21.66 17 22.32 17 23 C16.34 23 15.68 23 15 23 C15.66 24.98 16.32 26.96 17 29 C12.61352884 33.38265351 9.29362713 33.60016142 3.41796875 33.609375 C2.60378983 33.62591125 1.7896109 33.64244751 0.95075989 33.65948486 C-1.6370708 33.70787788 -4.22431426 33.72931568 -6.8125 33.75 C-8.57229503 33.77816708 -10.33206281 33.80809555 -12.09179688 33.83984375 C-16.39448288 33.91363409 -20.69684457 33.9632615 -25 34 C-22.24034766 38.74315245 -19.59269093 41.93820604 -15 45 C-8.68700901 45.41682581 -8.68700901 45.41682581 -3 43 C-2.01 42.67 -1.02 42.34 0 42 C0.66 41.67 1.32 41.34 2 41 C4.875 40.625 4.875 40.625 8 41 C10.4375 43.0625 10.4375 43.0625 12 46 C11.78947368 52.21052632 11.78947368 52.21052632 9 55 C7.68 55 6.36 55 5 55 C4.505 55.99 4.505 55.99 4 57 C-3.41273528 61.06551179 -16.09493951 60.19355573 -24.0625 58 C-31.08786507 55.09008547 -36.27422259 49.45091746 -40 43 C-40.66 42.34 -41.32 41.68 -42 41 C-42.33446892 38.49002892 -42.55708797 36.08300891 -42.6875 33.5625 C-42.73455078 32.88123047 -42.78160156 32.19996094 -42.83007812 31.49804688 C-43.01963332 28.32532788 -43.01478268 26.04434804 -42 23 C-42.66 22.67 -43.32 22.34 -44 22 C-43.34 22 -42.68 22 -42 22 C-41.95875 21.21625 -41.9175 20.4325 -41.875 19.625 C-40.01443901 11.9169616 -35.72166653 5.60539123 -29.1328125 1.18359375 C-19.80664928 -3.99191441 -9.66771974 -4.88528391 0 0 Z M-25 15 C-26.05081138 17.02418332 -26.05081138 17.02418332 -26 19 C-25.67 19.66 -25.34 20.32 -25 21 C-17.08 21 -9.16 21 -1 21 C-2.14288489 16.42846043 -3.2958497 15.08088522 -6.8359375 12.2109375 C-13.06612616 8.72473085 -19.91866951 10.30954109 -25 15 Z " fill="#FBD5DE" transform="translate(280,33)"/>
<path d="M0 0 C6.25747073 4.96606026 10.17287757 11.68777417 11.76953125 19.52734375 C12.32167625 25.71136772 12.32167625 25.71136772 10.29394531 28.70800781 C6.71204708 31.2894687 3.32321176 31.13026632 -0.93359375 31.13671875 C-1.77138367 31.153255 -2.60917358 31.16979126 -3.47235107 31.18682861 C-6.14179812 31.23531874 -8.81067549 31.2566812 -11.48046875 31.27734375 C-13.29299743 31.30550268 -15.10549955 31.33543 -16.91796875 31.3671875 C-21.35542184 31.44107769 -25.79255852 31.49064589 -30.23046875 31.52734375 C-29.534375 32.21449463 -29.534375 32.21449463 -28.82421875 32.91552734 C-26.62323125 35.14146477 -24.69970985 37.57312427 -22.73046875 40.00390625 C-20.45451346 42.31542334 -18.33005968 42.51718141 -15.16796875 42.83984375 C-11.48901953 42.54786365 -9.52948093 41.92102873 -6.23046875 40.46484375 C-1.63543068 38.48953775 0.97718316 38.02973497 5.76953125 39.52734375 C7.76953125 42.52734375 7.76953125 42.52734375 8.33203125 44.83984375 C7.55725835 48.54153649 5.80811718 49.89941862 2.8671875 52.16796875 C-5.09750837 57.32944764 -13.97635118 57.40633677 -23.23046875 56.52734375 C-30.89558932 54.72558234 -37.14666383 50.84467063 -41.734375 44.421875 C-44.73725003 39.45130408 -45.91516939 35.3078321 -46.23046875 29.52734375 C-46.89046875 29.52734375 -47.55046875 29.52734375 -48.23046875 29.52734375 C-48.23046875 26.88734375 -48.23046875 24.24734375 -48.23046875 21.52734375 C-47.57046875 21.52734375 -46.91046875 21.52734375 -46.23046875 21.52734375 C-46.14410156 20.97046875 -46.05773437 20.41359375 -45.96875 19.83984375 C-44.3262014 10.91884586 -40.41166115 4.75952965 -33.39453125 -0.99609375 C-22.861241 -8.18306796 -10.30720655 -6.80528349 0 0 Z M-28.23046875 13.52734375 C-29.71546875 16.00234375 -29.71546875 16.00234375 -31.23046875 18.52734375 C-22.32046875 18.52734375 -13.41046875 18.52734375 -4.23046875 18.52734375 C-6.14681691 13.73647336 -7.5964659 10.77108031 -12.23046875 8.52734375 C-19.08624313 7.27078686 -23.97592286 7.5443886 -28.23046875 13.52734375 Z " fill="#FCD4DE" transform="translate(478.23046875,35.47265625)"/>
<path d="M0 0 C3.32229421 2.92506338 5.60435677 5.67176914 6.875 9.9375 C6.91625 10.618125 6.9575 11.29875 7 12 C7.66 12 8.32 12 9 12 C8.67 14.31 8.34 16.62 8 19 C8.66 19 9.32 19 10 19 C10 29.56 10 40.12 10 51 C9.34 51 8.68 51 8 51 C7.896875 51.598125 7.79375 52.19625 7.6875 52.8125 C6.85510163 55.46104026 6.32045815 56.4530279 4 58 C0.21433147 58.48181236 -2.02227157 58.6931795 -5.19116211 56.4465332 C-7.61600369 53.16682778 -7.54969466 50.34126053 -7.50390625 46.41796875 C-7.51332748 45.68556473 -7.52274872 44.95316071 -7.53245544 44.19856262 C-7.56107387 41.86125674 -7.56418631 39.5249667 -7.5625 37.1875 C-7.56612137 34.86089278 -7.575828 32.5350269 -7.60325623 30.20857239 C-7.6198872 28.76391322 -7.62304544 27.31901153 -7.61024475 25.87431335 C-7.65984362 21.06627077 -8.41551592 15.58448408 -12 12 C-16.61544489 11.41830137 -20.00133167 11.3758323 -24 13.875 C-26.03791396 15.83637134 -26.03791396 15.83637134 -27 18 C-27.66 18 -28.32 18 -29 18 C-28.67 18.99 -28.34 19.98 -28 21 C-27.91708047 22.9920303 -27.89261823 24.98673713 -27.90234375 26.98046875 C-27.90556641 28.14384766 -27.90878906 29.30722656 -27.91210938 30.50585938 C-27.92048828 31.72080078 -27.92886719 32.93574219 -27.9375 34.1875 C-27.94201172 35.41404297 -27.94652344 36.64058594 -27.95117188 37.90429688 C-27.96296935 40.93624668 -27.97943079 43.96809906 -28 47 C-28.66 47 -29.32 47 -30 47 C-29.87625 48.60875 -29.87625 48.60875 -29.75 50.25 C-30 54 -30 54 -31.5625 56.4375 C-34.94217804 58.60396028 -37.05983987 58.56288002 -41 58 C-43.564485 55.99515262 -44.83237725 54.79085696 -45.5146637 51.57177734 C-45.52086227 50.6689502 -45.52706085 49.76612305 -45.53344727 48.8359375 C-45.55720177 47.29413818 -45.55720177 47.29413818 -45.58143616 45.72119141 C-45.57647629 44.61694824 -45.57151642 43.51270508 -45.56640625 42.375 C-45.57260483 41.23595215 -45.57880341 40.0969043 -45.58518982 38.92333984 C-45.59229133 36.51595922 -45.5891083 34.10852952 -45.57641602 31.70117188 C-45.56255041 28.013406 -45.59662024 24.32817651 -45.63476562 20.640625 C-45.63571679 18.30208271 -45.63385815 15.96353724 -45.62890625 13.625 C-45.64216446 12.52075684 -45.65542267 11.41651367 -45.66908264 10.27880859 C-45.57640834 2.67839903 -45.57640834 2.67839903 -42.68334961 -0.7265625 C-38.97915355 -2.4844632 -36.90162457 -2.13501806 -33 -1 C-30.5625 1.0625 -30.5625 1.0625 -29 3 C-28.46890625 2.65066406 -27.9378125 2.30132812 -27.390625 1.94140625 C-26.68421875 1.48636719 -25.9778125 1.03132813 -25.25 0.5625 C-24.55390625 0.11003906 -23.8578125 -0.34242187 -23.140625 -0.80859375 C-16.16985409 -4.68831113 -6.7649745 -4.05045742 0 0 Z " fill="#FBD6E0" transform="translate(350,33)"/>
<path d="M0 0 C2.52737004 1.91731521 2.9716847 2.91505409 4 6 C4.0846817 8.51368055 4.11601885 10.99869374 4.09765625 13.51171875 C4.0962413 14.23994339 4.09482635 14.96816803 4.09336853 15.71846008 C4.08777659 18.04151539 4.07522562 20.36447388 4.0625 22.6875 C4.05748396 24.26367048 4.05292123 25.83984248 4.04882812 27.41601562 C4.0378098 31.27738098 4.02055074 35.13867408 4 39 C4.66 39.33 5.32 39.66 6 40 C6.556875 40.825 7.11375 41.65 7.6875 42.5 C9.85565402 45.28659611 9.85565402 45.28659611 13.4375 45.9375 C17.0436264 46.00076538 18.9582532 45.91195513 22 44 C24.26636927 39.78193907 24.2649596 35.70402304 24.23828125 31.03125 C24.25369444 29.47525163 24.26999759 27.91926187 24.28710938 26.36328125 C24.30357815 23.92737739 24.31247713 21.4921075 24.30541992 19.05615234 C24.30279681 16.6929653 24.33092672 14.33168219 24.36328125 11.96875 C24.35307449 11.24465942 24.34286774 10.52056885 24.33235168 9.77453613 C24.40747226 5.87710041 24.90523683 4.12281707 27.31323242 1.00195312 C30 -1 30 -1 33.625 -1 C38.2314752 0.36488154 38.2314752 0.36488154 40 3 C40.26159322 5.79989129 40.34904338 8.37227929 40.29296875 11.16796875 C40.28872391 11.96278152 40.28447906 12.7575943 40.28010559 13.57649231 C40.2633193 16.11384021 40.22566824 18.65039238 40.1875 21.1875 C40.17245305 22.90819165 40.15876466 24.62889576 40.14648438 26.34960938 C40.11341607 30.56671262 40.06163495 34.78322142 40 39 C40.66 39 41.32 39 42 39 C42 39.66 42 40.32 42 41 C41.34 41 40.68 41 40 41 C40.3403125 41.87011719 40.3403125 41.87011719 40.6875 42.7578125 C41 45 41 45 39.8125 46.9296875 C27.79887165 59.82362482 27.79887165 59.82362482 21.21875 60.23828125 C2.66186562 60.67982897 2.66186562 60.67982897 -4.82421875 54.4921875 C-12.98402924 45.99650103 -12.47645149 35.12806045 -12.39111328 24.15991211 C-12.37492323 21.6757206 -12.39107567 19.19312869 -12.41015625 16.70898438 C-12.40817565 15.12239226 -12.40433577 13.53580114 -12.3984375 11.94921875 C-12.40451019 11.21064133 -12.41058289 10.4720639 -12.4168396 9.71110535 C-12.37393604 6.57427919 -12.1862973 4.33909645 -10.66259766 1.56567383 C-7.26124797 -1.63738866 -4.25530341 -1.06382585 0 0 Z " fill="#FCD5DF" transform="translate(382,32)"/>
<path d="M0 0 C7.93050372 0.83033052 7.93050372 0.83033052 10.41796875 3.55078125 C11.4375 5.375 11.4375 5.375 13 9 C14.24696099 11.56319759 14.9634704 12.9634704 17 15 C17 15.99 17 16.98 17 18 C17.45246094 18.45246094 17.90492188 18.90492187 18.37109375 19.37109375 C20.42052451 21.42052451 21.07578927 23.3500442 22.0625 26.0625 C23.44523355 29.89193066 23.44523355 29.89193066 26 33 C26.2475 32.113125 26.495 31.22625 26.75 30.3125 C28.04264874 26.88698085 29.71646242 24.81636302 32 22 C32 21.01 32 20.02 32 19 C32.495 18.360625 32.99 17.72125 33.5 17.0625 C35.39211447 14.88588856 35.39211447 14.88588856 35 11 C36.25 9.625 36.25 9.625 38 8 C38.598125 6.96875 39.19625 5.9375 39.8125 4.875 C42 2 42 2 45 1 C48.06811896 1 49.5141475 1.25069639 52 3 C53.22485812 5.44971624 53.16722808 7.14234461 53.1875 9.875 C53.20167969 10.73867188 53.21585938 11.60234375 53.23046875 12.4921875 C52.90996585 15.97969359 51.89127118 18.14300848 49.375 20.5625 C47.65438868 22.02978279 47.65438868 22.02978279 48 25 C46.85745268 28.5155302 45.57194468 30.42805532 43 33 C43 33.99 43 34.98 43 36 C41.4 40.8 41.4 40.8 39 42 C39 42.99 39 43.98 39 45 C38.16396101 47.57242768 37.52100233 49.49457111 35.5625 51.39453125 C33.812422 53.19273639 32.93906676 54.95470162 31.8125 57.1875 C29.61753046 60.78831106 29.61753046 60.78831106 27.07421875 61.66015625 C23.35123585 61.8214154 21.33767664 61.2055423 18.125 59.25 C15.17708759 56.12868098 14 54.31644262 14 50 C12.06102121 47.32601524 12.06102121 47.32601524 10 45 C10.33 44.34 10.66 43.68 11 43 C10.11498284 40.71370568 9.285757 39.25146616 7.4375 37.625 C5.39900628 35.32061579 5.49836444 32.99018664 5 30 C3.50014391 28.33289654 3.50014391 28.33289654 2 27 C2 26.01 2 25.02 2 24 C1.34 23.34 0.68 22.68 0 22 C0 21.01 0 20.02 0 19 C-0.474375 18.46375 -0.94875 17.9275 -1.4375 17.375 C-3.78561158 13.8058704 -4.27843285 10.2424374 -4 6 C-2.93875073 3.56507761 -1.73963621 2.05593371 0 0 Z M25 36 C26 38 26 38 26 38 Z " fill="#FBD6DF" transform="translate(179,30)"/>
<path d="M0 0 C2.20530082 1.51520669 4.02914947 3.16992451 6 5 C5.01 5.495 5.01 5.495 4 6 C4.05220703 7.55460937 4.05220703 7.55460937 4.10546875 9.140625 C4.13361482 10.51040042 4.16091411 11.88019341 4.1875 13.25 C4.21263672 13.93191406 4.23777344 14.61382812 4.26367188 15.31640625 C4.309933 18.49300322 4.20800414 20.63672516 2.61328125 23.421875 C1 25 1 25 -1 26 C-4.93297521 25.78150138 -7.28351385 25.58450186 -10.375 23.0625 C-13.23236656 19.43584244 -13.10845313 17.14249553 -13.0625 12.5625 C-13.05347656 11.40878906 -13.04445312 10.25507812 -13.03515625 9.06640625 C-13.02355469 8.05449219 -13.01195312 7.04257813 -13 6 C-13 5.01 -13 4.02 -13 3 C-8.7687787 -0.79350875 -5.46132128 -1.49918623 0 0 Z " fill="#FBD3DD" transform="translate(51,72)"/>
<path d="M0 0 C3.375 1.5 3.375 1.5 6 3 C5.67 3.66 5.34 4.32 5 5 C5.66 5.66 6.32 6.32 7 7 C6.34 7 5.68 7 5 7 C5.05220703 8.44632813 5.05220703 8.44632813 5.10546875 9.921875 C5.13253906 11.18515625 5.15960938 12.4484375 5.1875 13.75 C5.23970703 15.62945312 5.23970703 15.62945312 5.29296875 17.546875 C4.98450411 21.18264492 4.6328879 22.53427958 2 25 C-4.40592966 26.8150134 -4.40592966 26.8150134 -8.078125 24.9375 C-9.78686032 23.71499018 -11.40243579 22.3645861 -13 21 C-12.67 20.34 -12.34 19.68 -12 19 C-12.04878859 15.74890601 -12.19624248 12.50919406 -12.35546875 9.26171875 C-11.92591105 5.32017286 -10.74924275 3.78989698 -8 1 C-5.16870331 -0.41564834 -3.14918438 -0.24224495 0 0 Z " fill="#FAD5DF" transform="translate(50,37)"/>
<path d="M0 0 C0.33 0.66 0.66 1.32 1 2 C1.66 2 2.32 2 3 2 C2.67 4.31 2.34 6.62 2 9 C2.66 9 3.32 9 4 9 C4 19.56 4 30.12 4 41 C3.34 41 2.68 41 2 41 C1.896875 41.598125 1.79375 42.19625 1.6875 42.8125 C0.85510163 45.46104026 0.32045815 46.4530279 -2 48 C-6.36706908 48.38991688 -8.30513897 48.46324069 -12 46 C-12 45.34 -12 44.68 -12 44 C-9.03 44.66 -6.06 45.32 -3 46 C-3.495 44.515 -3.495 44.515 -4 43 C-3.01 43 -2.02 43 -1 43 C-0.8321561 37.8040704 -0.67162077 32.60798544 -0.51782227 27.41162109 C-0.46448835 25.64430686 -0.4091659 23.87705145 -0.35180664 22.10986328 C-0.269655 19.56816288 -0.19468212 17.02633597 -0.12109375 14.484375 C-0.09405869 13.69569031 -0.06702362 12.90700562 -0.03916931 12.09442139 C0.10357493 7.95072113 0.10357493 7.95072113 -0.56385803 3.88433838 C-1 2 -1 2 0 0 Z " fill="#FCEEF1" transform="translate(356,43)"/>
<path d="M0 0 C6.29706644 5.07263685 8.50050879 12.06650671 9.5 19.9375 C8.87151899 23.78694617 8.13986589 24.7094721 5 27 C1.97094023 27.34890086 -0.68303287 27.46754756 -3.703125 27.390625 C-4.54091492 27.38496521 -5.37870483 27.37930542 -6.24188232 27.37347412 C-8.91184166 27.35112329 -11.58044787 27.30093098 -14.25 27.25 C-16.06248059 27.22993325 -17.87498226 27.21168278 -19.6875 27.1953125 C-24.12551959 27.15126294 -28.56253056 27.08224566 -33 27 C-32.67 26.34 -32.34 25.68 -32 25 C-19.46 24.67 -6.92 24.34 6 24 C7.09184691 20.72445926 6.88854859 19.73940625 6.0625 16.5 C5.38856225 13.82210164 5 11.78655709 5 9 C4.34 9 3.68 9 3 9 C2.8453125 8.1028125 2.8453125 8.1028125 2.6875 7.1875 C1.91123545 4.71756736 0.92911079 3.67748765 -1 2 C-0.67 1.34 -0.34 0.68 0 0 Z " fill="#F9DEE5" transform="translate(481,39)"/>
<path d="M0 0 C1.32 0.33 2.64 0.66 4 1 C4 9.58 4 18.16 4 27 C3.34 27 2.68 27 2 27 C2.04125 28.093125 2.0825 29.18625 2.125 30.3125 C2 34 2 34 0 37 C-0.99 36.67 -1.98 36.34 -3 36 C-2.67 35.34 -2.34 34.68 -2 34 C-1.34 34 -0.68 34 0 34 C0 22.78 0 11.56 0 0 Z " fill="#FEF0F4" transform="translate(318,53)"/>
<path d="M0 0 C1.32 0 2.64 0 4 0 C3.938125 0.721875 3.87625 1.44375 3.8125 2.1875 C4.03798462 5.56976926 5.25190881 7.13313045 7 10 C7.6875 13.3125 7.6875 13.3125 8 16 C8.66 16 9.32 16 10 16 C10 16.66 10 17.32 10 18 C10.99 18.33 11.98 18.66 13 19 C13 19.66 13 20.32 13 21 C14.11375 21.433125 14.11375 21.433125 15.25 21.875 C17.56739797 22.82302644 19.77917115 23.84845911 22 25 C22 25.66 22 26.32 22 27 C22.61875 26.814375 23.2375 26.62875 23.875 26.4375 C26 26 26 26 28 27 C30.56845219 27.03037021 33.120762 26.93311185 35.6875 26.83984375 C38 27 38 27 40 29 C29.06411752 29.52492236 20.16646128 29.21495632 11.1875 22.3125 C5.15260558 16.64854472 2.44486429 10.1558453 2 2 C1.34 2 0.68 2 0 2 C0 1.34 0 0.68 0 0 Z " fill="#FBE3E9" transform="translate(430,63)"/>
<path d="M0 0 C-3.29539731 1.09846577 -4.58652851 0.82079691 -7.9375 0.25 C-14.88229185 -0.50828619 -19.86738711 2.02833264 -26 5 C-26.99 5.33 -27.98 5.66 -29 6 C-30.20882096 8.00016466 -30.20882096 8.00016466 -31 10 C-31.66 10 -32.32 10 -33 10 C-33.33 11.65 -33.66 13.3 -34 15 C-34.99 15.33 -35.98 15.66 -37 16 C-37 16.99 -37 17.98 -37 19 C-37.66 19 -38.32 19 -39 19 C-37.20988868 11.8395547 -33.22077103 6.17869685 -27.0625 2.125 C-18.18140881 -2.8706138 -9.48204974 -3.22793183 0 0 Z " fill="#FBE3EA" transform="translate(278,32)"/>
<path d="M0 0 C2.125 0.9375 2.125 0.9375 4 2 C4 2.66 4 3.32 4 4 C4.66 4.33 5.32 4.66 6 5 C5.67 6.32 5.34 7.64 5 9 C3.02 7.35 1.04 5.7 -1 4 C-1.50757862 5.41396902 -2.00574925 6.83131729 -2.5 8.25 C-2.7784375 9.03890625 -3.056875 9.8278125 -3.34375 10.640625 C-4.17864861 13.23412738 -4.17864861 13.23412738 -4 17 C-4.66 17.33 -5.32 17.66 -6 18 C-5.01 19.32 -4.02 20.64 -3 22 C-5.31 22 -7.62 22 -10 22 C-9.855625 21.29875 -9.71125 20.5975 -9.5625 19.875 C-8.98521625 16.92443859 -8.48304859 13.96729849 -8 11 C-7.34 11 -6.68 11 -6 11 C-5.71125 10.278125 -5.4225 9.55625 -5.125 8.8125 C-4.75375 7.884375 -4.3825 6.95625 -4 6 C-3.505 4.63875 -3.505 4.63875 -3 3.25 C-2 1 -2 1 0 0 Z " fill="#FCE5EA" transform="translate(140,37)"/>
<path d="M0 0 C0.99 0.66 1.98 1.32 3 2 C3 2.66 3 3.32 3 4 C0.93163582 3.48290895 -1.0205679 2.99164429 -3 2.1875 C-5.20459691 1.7581136 -5.20459691 1.7581136 -7.3125 3.6875 C-9.27510079 5.8305797 -9.27510079 5.8305797 -8.75 8.25 C-8.5025 8.8275 -8.255 9.405 -8 10 C-8.99 10.33 -9.98 10.66 -11 11 C-11 12.093125 -11 13.18625 -11 14.3125 C-11 16.54166667 -11 18.77083333 -11 21 C-13 19 -13 19 -13.1953125 16.06640625 C-13.17210937 14.91011719 -13.14890625 13.75382812 -13.125 12.5625 C-13.10695312 11.40878906 -13.08890625 10.25507812 -13.0703125 9.06640625 C-13.04710937 8.05449219 -13.02390625 7.04257813 -13 6 C-13 5.01 -13 4.02 -13 3 C-8.70466666 -0.85098851 -5.54192472 -1.27002441 0 0 Z " fill="#FBE1E7" transform="translate(51,72)"/>
<path d="M0 0 C0.66 0 1.32 0 2 0 C2 0.66 2 1.32 2 2 C2.66 2 3.32 2 4 2 C4 2.66 4 3.32 4 4 C3.34 4 2.68 4 2 4 C2.3403125 4.87011719 2.3403125 4.87011719 2.6875 5.7578125 C3 8 3 8 1.8125 9.9296875 C-8.06766917 20.53383459 -8.06766917 20.53383459 -13 23 C-13.99 22.01 -14.98 21.02 -16 20 C-15.06027344 19.63648438 -15.06027344 19.63648438 -14.1015625 19.265625 C-13.28429687 18.93046875 -12.46703125 18.5953125 -11.625 18.25 C-10.81289063 17.92515625 -10.00078125 17.6003125 -9.1640625 17.265625 C-6.66684861 15.80516056 -6.01755741 14.66130399 -5 12 C-4.34 12 -3.68 12 -3 12 C-2.01 8.04 -1.02 4.08 0 0 Z " fill="#FCE7ED" transform="translate(420,69)"/>
<path d="M0 0 C1.5625 1.75 1.5625 1.75 3 4 C2.6875 6.25 2.6875 6.25 2 8 C1.34 8 0.68 8 0 8 C0 8.99 0 9.98 0 11 C0.66 11 1.32 11 2 11 C3 14 3 14 2.0625 16.1875 C1.5365625 17.0846875 1.5365625 17.0846875 1 18 C1.66 18 2.32 18 3 18 C3 18.99 3 19.98 3 21 C4.94009522 22.70532323 4.94009522 22.70532323 7 24 C6.67 25.65 6.34 27.3 6 29 C5.071875 27.824375 5.071875 27.824375 4.125 26.625 C2.10141339 24.03162353 2.10141339 24.03162353 0 22 C-0.33446892 19.49002892 -0.55708797 17.08300891 -0.6875 14.5625 C-0.73455078 13.88123047 -0.78160156 13.19996094 -0.83007812 12.49804688 C-1.01963332 9.32532788 -1.01478268 7.04434804 0 4 C-0.66 3.67 -1.32 3.34 -2 3 C-1.34 3 -0.68 3 0 3 C0 2.01 0 1.02 0 0 Z " fill="#FBE9ED" transform="translate(238,52)"/>
<path d="M0 0 C0.99 0.66 1.98 1.32 3 2 C2.34 2 1.68 2 1 2 C1.03480469 3.03640625 1.06960937 4.0728125 1.10546875 5.140625 C1.13361482 6.51040042 1.16091411 7.88019341 1.1875 9.25 C1.22520508 10.27287109 1.22520508 10.27287109 1.26367188 11.31640625 C1.309933 14.49300322 1.20800414 16.63672516 -0.38671875 19.421875 C-2 21 -2 21 -4 22 C-8.11592992 21.62582455 -10.52735662 21.31509559 -14 19 C-14 18.34 -14 17.68 -14 17 C-13.30132812 17.08378906 -12.60265625 17.16757813 -11.8828125 17.25390625 C-10.97273438 17.35574219 -10.06265625 17.45757812 -9.125 17.5625 C-8.22007813 17.66691406 -7.31515625 17.77132812 -6.3828125 17.87890625 C-3.98346943 18.19674852 -3.98346943 18.19674852 -2 17 C-2.02320313 16.10796875 -2.04640625 15.2159375 -2.0703125 14.296875 C-2.09738281 12.54117188 -2.09738281 12.54117188 -2.125 10.75 C-2.14820313 9.58984375 -2.17140625 8.4296875 -2.1953125 7.234375 C-2.0103949 4.17213954 -1.60823023 2.55797249 0 0 Z " fill="#FBE3EB" transform="translate(54,76)"/>
<path d="M0 0 C0.66 0.33 1.32 0.66 2 1 C1.67 4.63 1.34 8.26 1 12 C1.99 12.33 2.98 12.66 4 13 C4 13.66 4 14.32 4 15 C6.28705831 16.14352916 7.59264762 16.10334439 10.125 16.0625 C11.40375 16.041875 12.6825 16.02125 14 16 C14.33 14.68 14.66 13.36 15 12 C16.32 12 17.64 12 19 12 C19 14 19 14 16.5 16.625 C13.91865089 18.70356852 12.1267751 19.37011178 8.8125 19.4375 C5 19 5 19 2 17 C2 16.34 2 15.68 2 15 C1.01 14.67 0.02 14.34 -1 14 C-0.67 13.67 -0.34 13.34 0 13 C0.07258946 10.81360547 0.08373783 8.62499611 0.0625 6.4375 C0.05347656 5.23996094 0.04445312 4.04242188 0.03515625 2.80859375 C0.02355469 1.88175781 0.01195312 0.95492188 0 0 Z " fill="#FBE4EA" transform="translate(38,9)"/>
<path d="M0 0 C-0.33 0.99 -0.66 1.98 -1 3 C-1.763125 2.34 -2.52625 1.68 -3.3125 1 C-7.71321036 -1.97601996 -12.8873538 -1.71844375 -18 -1 C-18.66 -0.34 -19.32 0.32 -20 1 C-21.33333333 2.33333333 -22.66666667 3.66666667 -24 5 C-23.67 5.66 -23.34 6.32 -23 7 C-24.65 6.67 -26.3 6.34 -28 6 C-26.03484522 1.83387186 -24.86480267 -0.42346489 -21 -3 C-13.97958655 -5.46170342 -6.02355704 -4.08189763 0 0 Z " fill="#FCE8EB" transform="translate(473,46)"/>
<path d="M0 0 C1.98 0 3.96 0 6 0 C5.67 1.32 5.34 2.64 5 4 C4.34 4 3.68 4 3 4 C2.67 4.99 2.34 5.98 2 7 C1.01 7 0.02 7 -1 7 C-0.67 9.64 -0.34 12.28 0 15 C-0.99 15.495 -0.99 15.495 -2 16 C-2 15.34 -2 14.68 -2 14 C-2.66 13.67 -3.32 13.34 -4 13 C-3.67 12.01 -3.34 11.02 -3 10 C-3.66 10 -4.32 10 -5 10 C-5.33 8.68 -5.66 7.36 -6 6 C-5.01 6 -4.02 6 -3 6 C-3.33 5.34 -3.66 4.68 -4 4 C-2.68 3.34 -1.36 2.68 0 2 C0 1.34 0 0.68 0 0 Z " fill="#FBE8ED" transform="translate(61,2)"/>
<path d="M0 0 C2.1875 -0.3125 2.1875 -0.3125 5 0 C7.625 2.375 7.625 2.375 10 5 C13.20380017 7.13586678 14.01939967 7.23132175 17.6875 7.125 C18.49574219 7.10695313 19.30398438 7.08890625 20.13671875 7.0703125 C20.75160156 7.04710938 21.36648438 7.02390625 22 7 C21.67 7.99 21.34 8.98 21 10 C13.32000994 10.4607994 7.93995468 9.25457529 2 4 C2 3.34 2 2.68 2 2 C1.34 2 0.68 2 0 2 C0 1.34 0 0.68 0 0 Z " fill="#FDE8ED" transform="translate(252,71)"/>
<path d="M0 0 C5.73051585 4.61624888 8.25846773 10.92828549 9.31640625 18.1640625 C9.42769753 21.65118932 8.97659906 23.03510141 7 26 C6.34 26 5.68 26 5 26 C5.37125 25.360625 5.7425 24.72125 6.125 24.0625 C7.21836968 20.23570611 6.52541118 17.86006933 5.5078125 14.0859375 C5 12 5 12 5 9 C4.34 9 3.68 9 3 9 C2.896875 8.401875 2.79375 7.80375 2.6875 7.1875 C1.91123545 4.71756736 0.92911079 3.67748765 -1 2 C-0.67 1.34 -0.34 0.68 0 0 Z " fill="#FBE6ED" transform="translate(481,39)"/>
<path d="M0 0 C0.66 0 1.32 0 2 0 C2.86476686 2.42134721 3.1422798 3.60873054 2.25 6.0625 C1 8 1 8 -0.625 9.5625 C-2.34561132 11.02978279 -2.34561132 11.02978279 -2 14 C-2.8125 16.625 -2.8125 16.625 -4 19 C-4.99 19.33 -5.98 19.66 -7 20 C-8.16209423 16.51371731 -7.88616059 16.13629782 -6.34765625 12.98828125 C-5.98349609 12.23095703 -5.61933594 11.47363281 -5.24414062 10.69335938 C-4.85419922 9.90767578 -4.46425781 9.12199219 -4.0625 8.3125 C-3.67642578 7.51521484 -3.29035156 6.71792969 -2.89257812 5.89648438 C-1.93709398 3.92653557 -0.97267894 1.96150061 0 0 Z " fill="#FDEAEF" transform="translate(229,41)"/>
<path d="M0 0 C0.79921875 0.00902344 1.5984375 0.01804687 2.421875 0.02734375 C3.02515625 0.03894531 3.6284375 0.05054687 4.25 0.0625 C4.25 0.3925 4.25 0.7225 4.25 1.0625 C3.3425 1.10375 2.435 1.145 1.5 1.1875 C-4.36003637 1.9953651 -9.7233267 5.07345294 -14.75 8.0625 C-15.08 8.7225 -15.41 9.3825 -15.75 10.0625 C-17.4 10.0625 -19.05 10.0625 -20.75 10.0625 C-20.42 8.0825 -20.09 6.1025 -19.75 4.0625 C-18.265 5.0525 -18.265 5.0525 -16.75 6.0625 C-16.21890625 5.71316406 -15.6878125 5.36382812 -15.140625 5.00390625 C-14.43421875 4.54886719 -13.7278125 4.09382813 -13 3.625 C-12.30390625 3.17253906 -11.6078125 2.72007813 -10.890625 2.25390625 C-7.24705437 0.22600654 -4.12745917 -0.06069793 0 0 Z " fill="#FCE4EB" transform="translate(337.75,29.9375)"/>
<path d="M0 0 C0.33 0.66 0.66 1.32 1 2 C-0.13746329 5.09539191 -1.71552595 7.62414699 -4 10 C-6.85332898 10.97598778 -9.11380178 10.79458089 -12 10 C-15.51586512 7.85990819 -17.49283703 5.83641483 -19 2 C-17.68 1.67 -16.36 1.34 -15 1 C-15 1.99 -15 2.98 -15 4 C-14.34 4.33 -13.68 4.66 -13 5 C-13 5.66 -13 6.32 -13 7 C-7.91696314 7.11320856 -7.91696314 7.11320856 -3 6 C-1.84478498 3.52869082 -1.84478498 3.52869082 -1 1 C-0.67 0.67 -0.34 0.34 0 0 Z " fill="#FCE5EB" transform="translate(212,81)"/>
<path d="M0 0 C1.03125 -0.03738281 2.0625 -0.07476562 3.125 -0.11328125 C6.65703893 0.40980604 7.77548624 1.60137385 10 4.3125 C9.34 4.9725 8.68 5.6325 8 6.3125 C7.5359375 5.3225 7.5359375 5.3225 7.0625 4.3125 C4.64520004 1.96845155 3.89259809 1.94298645 0.625 1.8125 C-3.70639548 1.99591414 -5.9720671 3.0953213 -9 6.3125 C-9.33 6.9725 -9.66 7.6325 -10 8.3125 C-10.66 8.3125 -11.32 8.3125 -12 8.3125 C-12.33 8.9725 -12.66 9.6325 -13 10.3125 C-13.33 8.6625 -13.66 7.0125 -14 5.3125 C-13.34 5.3125 -12.68 5.3125 -12 5.3125 C-12 4.6525 -12 3.9925 -12 3.3125 C-11.34 3.3125 -10.68 3.3125 -10 3.3125 C-10 2.6525 -10 1.9925 -10 1.3125 C-6.64643758 0.32094188 -3.49113636 0.08291449 0 0 Z " fill="#FEEAF0" transform="translate(333,42.6875)"/>
<path d="M0 0 C0.721875 0.103125 1.44375 0.20625 2.1875 0.3125 C1.1975 1.7975 1.1975 1.7975 0.1875 3.3125 C-1.1325 3.3125 -2.4525 3.3125 -3.8125 3.3125 C-3.8125 3.9725 -3.8125 4.6325 -3.8125 5.3125 C-4.4725 5.3125 -5.1325 5.3125 -5.8125 5.3125 C-6.1425 15.5425 -6.4725 25.7725 -6.8125 36.3125 C-7.1425 36.3125 -7.4725 36.3125 -7.8125 36.3125 C-7.93650035 31.98927539 -8.02702256 27.66700398 -8.0871582 23.3425293 C-8.11223644 21.87294475 -8.14630856 20.40348413 -8.18969727 18.93432617 C-8.25065499 16.81658319 -8.27877316 14.70049424 -8.30078125 12.58203125 C-8.32696533 11.30948486 -8.35314941 10.03693848 -8.38012695 8.72583008 C-7.56009932 3.79473058 -5.1292274 0.56991416 0 0 Z " fill="#F9E3EA" transform="translate(414.8125,30.6875)"/>
<path d="M0 0 C0.763125 0.309375 1.52625 0.61875 2.3125 0.9375 C4.18789677 1.67893593 6.08684652 2.36228217 8 3 C8 4.65 8 6.3 8 8 C7.34 8 6.68 8 6 8 C6 8.66 6 9.32 6 10 C4.72125 9.855625 3.4425 9.71125 2.125 9.5625 C-2.91280884 9.00185355 -7.95536879 8.49498469 -13 8 C-13 7.67 -13 7.34 -13 7 C-11.94039063 6.95101562 -10.88078125 6.90203125 -9.7890625 6.8515625 C-8.40101503 6.77653291 -7.01299549 6.70098515 -5.625 6.625 C-4.57699219 6.57859375 -4.57699219 6.57859375 -3.5078125 6.53125 C0.70185827 6.40500502 0.70185827 6.40500502 4 4 C2.68 2.68 1.36 1.36 0 0 Z " fill="#FBDBE3" transform="translate(274,47)"/>
<path d="M0 0 C0.33 0 0.66 0 1 0 C1 10.89 1 21.78 1 33 C1.66 33.33 2.32 33.66 3 34 C4.125 36.0625 4.125 36.0625 5 38 C3.35 37.67 1.7 37.34 0 37 C-1.06061259 32.75397856 -1.03535509 28.8749031 -0.87890625 24.51171875 C-0.85529526 23.80852005 -0.83168427 23.10532135 -0.80735779 22.3808136 C-0.7311907 20.14947928 -0.64696693 17.918534 -0.5625 15.6875 C-0.50923218 14.16863841 -0.45649215 12.6497582 -0.40429688 11.13085938 C-0.2756401 7.42033791 -0.13975943 3.71012176 0 0 Z " fill="#FFFDFF" transform="translate(385,38)"/>
<path d="M0 0 C0.33 0 0.66 0 1 0 C1.4375 2.125 1.4375 2.125 1 5 C-2.24068244 8.74417829 -6.18664084 11.69909212 -11 13 C-12.32 13 -13.64 13 -15 13 C-15 12.34 -15 11.68 -15 11 C-13.75283203 10.56300781 -13.75283203 10.56300781 -12.48046875 10.1171875 C-5.45940766 7.8755787 -5.45940766 7.8755787 -0.75 2.6875 C-0.37875 1.3571875 -0.37875 1.3571875 0 0 Z " fill="#FBE0E6" transform="translate(485,78)"/>
<path d="M0 0 C-0.53625 0.2475 -1.0725 0.495 -1.625 0.75 C-4.13668504 1.97487163 -4.13668504 1.97487163 -6.5625 4.0625 C-11.27518693 6.71874172 -15.66891154 6.81028155 -21 7 C-21.33 6.34 -21.66 5.68 -22 5 C-21.27554687 4.89042969 -20.55109375 4.78085938 -19.8046875 4.66796875 C-13.10564475 3.56932574 -6.59836056 -0.58220829 0 0 Z " fill="#FDE2EA" transform="translate(482,74)"/>
<path d="M0 0 C2 1 2 1 2.83984375 2.765625 C3.0749736 6.04597316 1.63534633 7.27713069 -0.4375 9.75 C-1.42556641 10.94882813 -1.42556641 10.94882813 -2.43359375 12.171875 C-2.95050781 12.77515625 -3.46742187 13.3784375 -4 14 C-5.046875 12.13671875 -5.046875 12.13671875 -6 10 C-5.07451225 7.30066074 -4.57626463 6.28813232 -2 5 C-2 3.68 -2 2.36 -2 1 C-1.34 0.67 -0.68 0.34 0 0 Z " fill="#FBE1E7" transform="translate(111,71)"/>
<path d="M0 0 C0.763125 0.20625 1.52625 0.4125 2.3125 0.625 C1.3225 2.11 1.3225 2.11 0.3125 3.625 C-1.75048828 3.96557617 -1.75048828 3.96557617 -4.2578125 3.91796875 C-5.15371094 3.90830078 -6.04960937 3.89863281 -6.97265625 3.88867188 C-8.37837891 3.8509668 -8.37837891 3.8509668 -9.8125 3.8125 C-10.75738281 3.79896484 -11.70226562 3.78542969 -12.67578125 3.77148438 C-15.01358779 3.73606306 -17.35026237 3.68667271 -19.6875 3.625 C-15.70074626 0.96716417 -12.9436037 1.54946866 -8.28125 1.75 C-4.72218253 1.57847868 -3.61070199 -0.50381888 0 0 Z " fill="#FCE6EC" transform="translate(280.6875,88.375)"/>
<path d="M0 0 C0.391875 0.61875 0.78375 1.2375 1.1875 1.875 C3.31444021 4.36865403 4.86093292 5.13675655 8 6 C8.99 5.67 9.98 5.34 11 5 C11 4.34 11 3.68 11 3 C11.99 3 12.98 3 14 3 C13.5 4.9375 13.5 4.9375 12 7 C8.05067842 8.13794012 5.63418432 8.83395522 1.91796875 6.9375 C0.21123787 5.71393734 -1.40320878 4.36392583 -3 3 C-2.01 2.01 -1.02 1.02 0 0 Z " fill="#FAE2E7" transform="translate(40,55)"/>
<path d="M0 0 C1.17949219 0.10183594 2.35898437 0.20367187 3.57421875 0.30859375 C4.47785156 0.39238281 5.38148438 0.47617187 6.3125 0.5625 C6.3125 1.8825 6.3125 3.2025 6.3125 4.5625 C5.9825 3.9025 5.6525 3.2425 5.3125 2.5625 C3.37568839 2.48142417 1.4379066 2.42327525 -0.5 2.375 C-1.57894531 2.34019531 -2.65789062 2.30539063 -3.76953125 2.26953125 C-7.07394539 2.60129974 -7.5908898 3.16367572 -9.6875 5.5625 C-10.6775 5.5625 -11.6675 5.5625 -12.6875 5.5625 C-13.0175 6.2225 -13.3475 6.8825 -13.6875 7.5625 C-13.1251049 4.30060844 -12.2734495 2.65115152 -9.6875 0.5625 C-6.14075997 -0.61974668 -3.71227005 -0.33079634 0 0 Z " fill="#FDE8ED" transform="translate(267.6875,42.4375)"/>
<path d="M0 0 C1.875 1.25 1.875 1.25 3 3 C3.1875 5.6875 3.1875 5.6875 3 8 C2.01 7.67 1.02 7.34 0 7 C0.33 5.35 0.66 3.7 1 2 C-5.03466457 1.35766754 -5.03466457 1.35766754 -10 4.5 C-10.66 5.325 -11.32 6.15 -12 7 C-11.72776186 3.64239623 -11.41629629 2.35682539 -8.8125 0.125 C-5.33681032 -1.26527587 -3.55736159 -1.08267527 0 0 Z " fill="#FAE4E9" transform="translate(382,32)"/>
<path d="M0 0 C0.66 0.33 1.32 0.66 2 1 C-0.57784846 3.64752004 -2.91648098 5.94432065 -6 8 C-7.20482939 9.7179646 -7.20482939 9.7179646 -8.1875 11.625 C-9.0846875 13.295625 -9.0846875 13.295625 -10 15 C-10.66 15 -11.32 15 -12 15 C-10.4631846 7.99895207 -5.77803245 3.85202163 0 0 Z " fill="#FAE4E9" transform="translate(447,33)"/>
<path d="M0 0 C-0.99 0.66 -1.98 1.32 -3 2 C-3 1.34 -3 0.68 -3 0 C-4.98 0 -6.96 0 -9 0 C-9 -0.66 -9 -1.32 -9 -2 C-13.34184202 -1.81535634 -13.34184202 -1.81535634 -17 0 C-19.67058851 0.14115161 -22.32432238 0.04247107 -25 0 C-17.22028415 -5.18647723 -8.12603732 -3.61157214 0 0 Z " fill="#FCE3E9" transform="translate(474,33)"/>
<path d="M0 0 C0.99 0 1.98 0 3 0 C3.25 2.25 3.25 2.25 3 5 C0.7522146 7.79035429 -0.57730016 8.85910005 -4 10 C-6.1875 9.5625 -6.1875 9.5625 -8 9 C-3.25 6 -3.25 6 -1 6 C-1.020625 5.195625 -1.04125 4.39125 -1.0625 3.5625 C-1 1 -1 1 0 0 Z " fill="#FDEFF3" transform="translate(175,82)"/>
<path d="M0 0 C0.66 0 1.32 0 2 0 C2 0.66 2 1.32 2 2 C2.66 2 3.32 2 4 2 C2.79618552 4.49361571 1.54571278 6.68143083 0 9 C0 9.99 0 10.98 0 12 C-0.99 12.33 -1.98 12.66 -3 13 C-3.66 12.34 -4.32 11.68 -5 11 C-3.99686938 8.76224708 -3.15523165 7.1492612 -1.375 5.4375 C0.34561132 3.97021721 0.34561132 3.97021721 0 1 C0 0.67 0 0.34 0 0 Z " fill="#FCEAED" transform="translate(211,48)"/>
<path d="M0 0 C-2 2 -2 2 -5 2.3125 C-5.99 2.539375 -6.98 2.76625 -8 3 C-9.40257876 5.38119246 -9.40257876 5.38119246 -10 8 C-10.33 8.66 -10.66 9.32 -11 10 C-11.66 10 -12.32 10 -13 10 C-11.49001815 3.84392015 -11.49001815 3.84392015 -9.875 1.0625 C-6.71713841 -0.7269549 -3.57336933 -0.17573948 0 0 Z " fill="#FAE3E8" transform="translate(145,13)"/>
<path d="M0 0 C0.66 0 1.32 0 2 0 C2.33 0.99 2.66 1.98 3 3 C2.505 3.433125 2.01 3.86625 1.5 4.3125 C-0.33218192 5.99740483 -0.33218192 5.99740483 0 9 C-3.0080208 12.0080208 -5.85463326 12.5289356 -10 13 C-7.31158141 10.74754119 -5.35358125 9.11786042 -2 8 C-1.7834375 6.576875 -1.7834375 6.576875 -1.5625 5.125 C-1 2 -1 2 0 0 Z " fill="#FCE9EE" transform="translate(121,79)"/>
<path d="M0 0 C3.69782242 1.84891121 4.84569023 5.56955696 6.1875 9.3125 C6.455625 10.199375 6.72375 11.08625 7 12 C5.68 12.33 4.36 12.66 3 13 C3 12.34 3 11.68 3 11 C2.34 10.67 1.68 10.34 1 10 C0.5859375 7.71484375 0.5859375 7.71484375 0.375 4.9375 C0.30023438 4.01839844 0.22546875 3.09929688 0.1484375 2.15234375 C0.09945312 1.44207031 0.05046875 0.73179688 0 0 Z " fill="#FDEDF1" transform="translate(196,49)"/>
<path d="M0 0 C4.10839064 1.45002023 7.50344613 3.3979134 11 6 C11 6.66 11 7.32 11 8 C11.66 8.33 12.32 8.66 13 9 C8.47328804 8.46744565 5.5799445 6.78440128 2 4 C0.625 1.75 0.625 1.75 0 0 Z " fill="#FBE1E8" transform="translate(375,82)"/>
<path d="M0 0 C1 3 1 3 0.375 5.625 C-1 8 -1 8 -3.5625 8.6875 C-4.366875 8.790625 -5.17125 8.89375 -6 9 C-6.33 9.66 -6.66 10.32 -7 11 C-7 10.34 -7 9.68 -7 9 C-7.66 8.67 -8.32 8.34 -9 8 C-8.21625 7.566875 -7.4325 7.13375 -6.625 6.6875 C-3.78301625 5.10779753 -3.78301625 5.10779753 -2 2 C-1.34 2 -0.68 2 0 2 C0 1.34 0 0.68 0 0 Z " fill="#FEEEF2" transform="translate(291,79)"/>
<path d="M0 0 C0.99 1.32 1.98 2.64 3 4 C1.08864614 7.53600465 -0.62642766 9.78972846 -4 12 C-4.66 11.67 -5.32 11.34 -6 11 C-5.38125 10.29875 -4.7625 9.5975 -4.125 8.875 C-1.9572991 5.94222819 -0.97344445 3.48817594 0 0 Z " fill="#FBDFE7" transform="translate(407,68)"/>
<path d="M0 0 C0.99 0.66 1.98 1.32 3 2 C0.25 7.875 0.25 7.875 -2 9 C-1.67 9.66 -1.34 10.32 -1 11 C-2.32 11 -3.64 11 -5 11 C-3.92289822 6.69159287 -2.96052484 3.36423277 0 0 Z " fill="#FDEBEF" transform="translate(220,63)"/>
<path d="M0 0 C3.10009769 1.38238352 5.28263873 2.98578859 7.6875 5.375 C8.28949219 5.96023437 8.89148438 6.54546875 9.51171875 7.1484375 C11.10135013 9.12608914 11.5905426 10.5214179 12 13 C7.98587091 11.66195697 7.26994046 9.47584633 5 6 C4.01 5.34 3.02 4.68 2 4 C2 3.34 2 2.68 2 2 C1.34 2 0.68 2 0 2 C0 1.34 0 0.68 0 0 Z " fill="#FCE6EC" transform="translate(280,34)"/>
<path d="M0 0 C4.39158329 1.4638611 4.87947433 3.97831338 7 8 C2.545 7.01 2.545 7.01 -2 6 C-1.34 5.67 -0.68 5.34 0 5 C-0.33 4.01 -0.66 3.02 -1 2 C-0.67 1.34 -0.34 0.68 0 0 Z " fill="#FDEFF2" transform="translate(447,67)"/>
<path d="M0 0 C0.99 0.66 1.98 1.32 3 2 C2.34 2 1.68 2 1 2 C0.34 3.32 -0.32 4.64 -1 6 C-1.66 6 -2.32 6 -3 6 C-3 9.63 -3 13.26 -3 17 C-3.33 17 -3.66 17 -4 17 C-4.63019694 6.02407002 -4.63019694 6.02407002 -2 1.75 C-1.01 0.88375 -1.01 0.88375 0 0 Z " fill="#FBE2E7" transform="translate(42,38)"/>
<path d="M0 0 C0.99 0.33 1.98 0.66 3 1 C4.125 5.75 4.125 5.75 3 8 C-0.3 8 -3.6 8 -7 8 C-7 7.67 -7 7.34 -7 7 C-3.535 6.505 -3.535 6.505 0 6 C-0.33 5.01 -0.66 4.02 -1 3 C-0.67 2.01 -0.34 1.02 0 0 Z " fill="#FCF1F3" transform="translate(147,51)"/>
<path d="M0 0 C-2.42130331 2.42130331 -3.80111377 2.52840504 -7.125 3.125 C-8.03507812 3.29257813 -8.94515625 3.46015625 -9.8828125 3.6328125 C-10.58148437 3.75398437 -11.28015625 3.87515625 -12 4 C-11 1 -11 1 -8.8125 -0.25 C-5.51773102 -1.12860506 -3.29199038 -0.76557916 0 0 Z " fill="#FDE9EE" transform="translate(32,3)"/>
<path d="M0 0 C0.66 0 1.32 0 2 0 C2 0.66 2 1.32 2 2 C2.66 2 3.32 2 4 2 C4.33 3.98 4.66 5.96 5 8 C4.01 8.495 4.01 8.495 3 9 C1.5 7.875 1.5 7.875 0 6 C-0.1875 2.8125 -0.1875 2.8125 0 0 Z " fill="#FCE6EB" transform="translate(185,60)"/>
<path d="M0 0 C0.763125 0.309375 1.52625 0.61875 2.3125 0.9375 C4.18789677 1.67893593 6.08684652 2.36228217 8 3 C7.67 4.32 7.34 5.64 7 7 C5.35 7.33 3.7 7.66 2 8 C2 7.01 2 6.02 2 5 C2.66 4.67 3.32 4.34 4 4 C2.68 2.68 1.36 1.36 0 0 Z " fill="#FDEAED" transform="translate(274,47)"/>
<path d="M0 0 C4.03520597 1.58962659 8.01811282 3.28232318 12 5 C11.67 5.66 11.34 6.32 11 7 C5.95904225 6.55520961 3.58884285 4.33845847 0 1 C0 0.67 0 0.34 0 0 Z " fill="#FBE6EB" transform="translate(246,83)"/>
<path d="M0 0 C1.32 0 2.64 0 4 0 C4.433125 0.94875 4.86625 1.8975 5.3125 2.875 C6.79302201 6.20041937 6.79302201 6.20041937 10 8 C6 8 6 8 3.3125 5.6875 C1 3 1 3 0 0 Z " fill="#FCE9ED" transform="translate(158,82)"/>
<path d="M0 0 C2.475 0.495 2.475 0.495 5 1 C5.66 2.98 6.32 4.96 7 7 C6.01 7.495 6.01 7.495 5 8 C3.5 6.6875 3.5 6.6875 2 5 C2 4.01 2 3.02 2 2 C1.34 1.34 0.68 0.68 0 0 Z " fill="#FEECF0" transform="translate(179,52)"/>
<path d="M0 0 C0.66 0.66 1.32 1.32 2 2 C1.01 2.495 1.01 2.495 0 3 C0.99 4.32 1.98 5.64 3 7 C0.69 7 -1.62 7 -4 7 C-3.6875 4.625 -3.6875 4.625 -3 2 C-2.01 1.34 -1.02 0.68 0 0 Z " fill="#FAEDEF" transform="translate(134,52)"/>
<path d="M0 0 C0.66 0.33 1.32 0.66 2 1 C1.45276317 4.37462715 0.9451 6.08235 -1 9 C-1.66 9 -2.32 9 -3 9 C-3.6875 7.1875 -3.6875 7.1875 -4 5 C-2.625 3.375 -2.625 3.375 -1 2 C-0.67 1.34 -0.34 0.68 0 0 Z " fill="#FDE4EA" transform="translate(218,36)"/>
<path d="M0 0 C0.33 0.66 0.66 1.32 1 2 C1.66 2.33 2.32 2.66 3 3 C2.67 3.66 2.34 4.32 2 5 C2.66 5 3.32 5 4 5 C3.67 6.65 3.34 8.3 3 10 C2.34 9.67 1.68 9.34 1 9 C1.33 8.34 1.66 7.68 2 7 C1.34 6.67 0.68 6.34 0 6 C0.33 5.34 0.66 4.68 1 4 C0.34 4 -0.32 4 -1 4 C-0.67 2.68 -0.34 1.36 0 0 Z " fill="#FDF0F3" transform="translate(76,84)"/>
<path d="M0 0 C0.66 0 1.32 0 2 0 C1.67 1.32 1.34 2.64 1 4 C1.66 4 2.32 4 3 4 C2.67 5.32 2.34 6.64 2 8 C2.66 8.33 3.32 8.66 4 9 C1.83125748 8.49396008 0.00032373 8.00016187 -2 7 C-2 6.34 -2 5.68 -2 5 C-1.34 5 -0.68 5 0 5 C0 3.35 0 1.7 0 0 Z " fill="#FDF1F4" transform="translate(92,77)"/>
<path d="M0 0 C0.804375 0.4640625 0.804375 0.4640625 1.625 0.9375 C4.3984957 2.17827439 7.00042837 2.5909675 10 3 C8 5 8 5 6.08984375 5.046875 C5.37957031 4.94890625 4.66929687 4.8509375 3.9375 4.75 C3.22464844 4.66234375 2.51179688 4.5746875 1.77734375 4.484375 C1.19082031 4.32453125 0.60429687 4.1646875 0 4 C-0.33 3.34 -0.66 2.68 -1 2 C-0.67 1.34 -0.34 0.68 0 0 Z " fill="#FDE5EB" transform="translate(390,76)"/>
<path d="M0 0 C2.1519437 3.22791555 2.20086443 4.28400809 2 8 C0.68 8 -0.64 8 -2 8 C-2 6.35 -2 4.7 -2 3 C-1.34 3 -0.68 3 0 3 C0 2.01 0 1.02 0 0 Z " fill="#FEF1F4" transform="translate(432,54)"/>
<path d="M0 0 C0.66 0.33 1.32 0.66 2 1 C1.67 3.31 1.34 5.62 1 8 C-0.32 8.33 -1.64 8.66 -3 9 C-2.01 6.03 -1.02 3.06 0 0 Z " fill="#FAE1E9" transform="translate(128,30)"/>
<path d="M0 0 C0 0.66 0 1.32 0 2 C-3.3 2.66 -6.6 3.32 -10 4 C-10.33 3.34 -10.66 2.68 -11 2 C-9.73392393 1.46770674 -8.46189588 0.94955456 -7.1875 0.4375 C-6.47980469 0.14746094 -5.77210937 -0.14257812 -5.04296875 -0.44140625 C-3 -1 -3 -1 0 0 Z " fill="#FDE6EC" transform="translate(49,3)"/>
<path d="M0 0 C1.65 0.99 3.3 1.98 5 3 C4.67 4.65 4.34 6.3 4 8 C0 3.375 0 3.375 0 0 Z " fill="#F9E0E7" transform="translate(240,73)"/>
<path d="M0 0 C0.66 0 1.32 0 2 0 C1.67 2.97 1.34 5.94 1 9 C0.01 8.67 -0.98 8.34 -2 8 C-2.125 5.125 -2.125 5.125 -2 2 C-1.34 1.34 -0.68 0.68 0 0 Z " fill="#FBE5EB" transform="translate(88,61)"/>
<path d="M0 0 C1.32 0 2.64 0 4 0 C3.979375 0.721875 3.95875 1.44375 3.9375 2.1875 C3.99820559 4.91925138 4.39258535 7.34256091 5 10 C4.34 10 3.68 10 3 10 C2.67 7.36 2.34 4.72 2 2 C1.34 2 0.68 2 0 2 C0 1.34 0 0.68 0 0 Z " fill="#FCEBEF" transform="translate(430,63)"/>
<path d="M0 0 C0.99 0 1.98 0 3 0 C3.68707555 2.49064888 4 4.37886292 4 7 C3.34 7.66 2.68 8.32 2 9 C2 8.01 2 7.02 2 6 C1.34 5.67 0.68 5.34 0 5 C0.33 4.34 0.66 3.68 1 3 C0.34 2.67 -0.32 2.34 -1 2 C-0.67 1.34 -0.34 0.68 0 0 Z " fill="#FEEAEF" transform="translate(70,61)"/>
<path d="M0 0 C1.9375 0.375 1.9375 0.375 4 1 C5.35439668 3.70879335 5.06501451 6.00933268 5 9 C4.01 8.67 3.02 8.34 2 8 C2 6.35 2 4.7 2 3 C1.34 2.67 0.68 2.34 0 2 C0 1.34 0 0.68 0 0 Z " fill="#FAE3EA" transform="translate(227,32)"/>
<path d="M0 0 C0.99 0.33 1.98 0.66 3 1 C2.34 1 1.68 1 1 1 C1.33 2.32 1.66 3.64 2 5 C1.34 5 0.68 5 0 5 C0.33 6.32 0.66 7.64 1 9 C0.01 9 -0.98 9 -2 9 C-3 6 -3 6 -1.5625 2.8125 C-1.046875 1.884375 -0.53125 0.95625 0 0 Z " fill="#FCE7ED" transform="translate(31,25)"/>
<path d="M0 0 C0.33 0.66 0.66 1.32 1 2 C1.66 2.33 2.32 2.66 3 3 C4.125 5.0625 4.125 5.0625 5 7 C3.35 6.67 1.7 6.34 0 6 C-0.38218767 4.34385343 -0.71395102 2.67542976 -1 1 C-0.67 0.67 -0.34 0.34 0 0 Z " fill="#FDEDF0" transform="translate(385,69)"/>
<path d="M0 0 C0.144375 0.598125 0.28875 1.19625 0.4375 1.8125 C0.8872439 3.56150404 1.42892341 5.28677023 2 7 C1.01 7.33 0.02 7.66 -1 8 C-1.66 6.35 -2.32 4.7 -3 3 C-2.01 2.01 -1.02 1.02 0 0 Z " fill="#FBE6EA" transform="translate(28,36)"/>
<path d="M0 0 C0.99 0.33 1.98 0.66 3 1 C2.6875 3.375 2.6875 3.375 2 6 C1.01 6.66 0.02 7.32 -1 8 C-1.93065133 5.39417629 -2.14917407 4.35801776 -1.0625 1.75 C-0.711875 1.1725 -0.36125 0.595 0 0 Z " fill="#FDE9F0" transform="translate(107,77)"/>
<path d="M0 0 C0.99 0 1.98 0 3 0 C3.33 1.65 3.66 3.3 4 5 C3.34 5 2.68 5 2 5 C1.67 5.66 1.34 6.32 1 7 C1 6.34 1 5.68 1 5 C0.34 4.67 -0.32 4.34 -1 4 C-0.67 2.68 -0.34 1.36 0 0 Z " fill="#FCE2E7" transform="translate(18,69)"/>
<path d="M0 0 C1.32 0.33 2.64 0.66 4 1 C3.67 2.32 3.34 3.64 3 5 C1.35 5 -0.3 5 -2 5 C-2 4.34 -2 3.68 -2 3 C-1.34 2.67 -0.68 2.34 0 2 C0 1.34 0 0.68 0 0 Z " fill="#FCF0F1" transform="translate(205,61)"/>
<path d="M0 0 C1.32 0 2.64 0 4 0 C4 0.66 4 1.32 4 2 C3.01 2.495 3.01 2.495 2 3 C2.33 3.99 2.66 4.98 3 6 C2.01 6.33 1.02 6.66 0 7 C-1.04449911 3.86650268 -0.93423645 3.01031744 0 0 Z " fill="#FBEEF2" transform="translate(25,45)"/>
<path d="M0 0 C-5.75 4 -5.75 4 -8 4 C-5.97675095 -0.48005146 -4.79569304 -1.43870791 0 0 Z " fill="#FAE7EC" transform="translate(227,32)"/>
<path d="M0 0 C0.33 0.66 0.66 1.32 1 2 C2.65 2 4.3 2 6 2 C5.01 2.66 4.02 3.32 3 4 C3 4.99 3 5.98 3 7 C2.01 7 1.02 7 0 7 C0 4.69 0 2.38 0 0 Z " fill="#FBEBEF" transform="translate(33,5)"/>
<path d="M0 0 C0.66 0 1.32 0 2 0 C2.66 1.98 3.32 3.96 4 6 C2.35 6.33 0.7 6.66 -1 7 C-0.67 4.69 -0.34 2.38 0 0 Z " fill="#FEEFF3" transform="translate(168,63)"/>
<path d="M0 0 C0.33 0.66 0.66 1.32 1 2 C1.66 2 2.32 2 3 2 C1.25 6.875 1.25 6.875 -1 8 C-1.33 6.02 -1.66 4.04 -2 2 C-1.34 2 -0.68 2 0 2 C0 1.34 0 0.68 0 0 Z " fill="#FCE6EA" transform="translate(5,62)"/>
<path d="M0 0 C0.66 0 1.32 0 2 0 C4 3 4 3 3.625 5.1875 C3.41875 5.785625 3.2125 6.38375 3 7 C1.68 5.68 0.36 4.36 -1 3 C-0.67 2.01 -0.34 1.02 0 0 Z " fill="#FDE7ED" transform="translate(177,42)"/>
<path d="M0 0 C0.33 0 0.66 0 1 0 C1.3125 2.25 1.3125 2.25 1 5 C-1.5 7.3125 -1.5 7.3125 -4 9 C-2.80100302 5.9168649 -1.52299523 2.93720508 0 0 Z " fill="#FDE8EE" transform="translate(485,78)"/>
<path d="M0 0 C1.65 0 3.3 0 5 0 C5 0.66 5 1.32 5 2 C2.625 3.6875 2.625 3.6875 0 5 C-0.66 4.67 -1.32 4.34 -2 4 C-1.34 2.68 -0.68 1.36 0 0 Z " fill="#FDE7EC" transform="translate(277,75)"/>
<path d="M0 0 C2.0625 0.4375 2.0625 0.4375 4 1 C3.1875 2.9375 3.1875 2.9375 2 5 C1.01 5.33 0.02 5.66 -1 6 C-1.042721 4.33388095 -1.04063832 2.66617115 -1 1 C-0.67 0.67 -0.34 0.34 0 0 Z " fill="#FDEFF4" transform="translate(214,75)"/>
<path d="M0 0 C2 3 2 3 1.625 6.1875 C1.41875 7.115625 1.2125 8.04375 1 9 C0.34 8.67 -0.32 8.34 -1 8 C-0.67 7.34 -0.34 6.68 0 6 C-0.66 5.67 -1.32 5.34 -2 5 C-1.34 3.35 -0.68 1.7 0 0 Z " fill="#FEEAF0" transform="translate(67,42)"/>
<path d="M0 0 C3.3 0 6.6 0 10 0 C10 0.33 10 0.66 10 1 C6.7 1 3.4 1 0 1 C0 0.67 0 0.34 0 0 Z " fill="#FFFFFF" transform="translate(458,93)"/>
<path d="M0 0 C3.3 0 6.6 0 10 0 C10 0.33 10 0.66 10 1 C6.7 1 3.4 1 0 1 C0 0.67 0 0.34 0 0 Z " fill="#FFFFFF" transform="translate(391,93)"/>
<path d="M0 0 C3.3 0 6.6 0 10 0 C10 0.33 10 0.66 10 1 C6.7 1 3.4 1 0 1 C0 0.67 0 0.34 0 0 Z " fill="#FFFFFF" transform="translate(263,93)"/>
<path d="M0 0 C1.98 0 3.96 0 6 0 C6 0.33 6 0.66 6 1 C4.02 1 2.04 1 0 1 C0 0.67 0 0.34 0 0 Z " fill="#FFFFFF" transform="translate(460,77)"/>
<path d="M0 0 C1.65 0 3.3 0 5 0 C5 0.33 5 0.66 5 1 C3.35 1 1.7 1 0 1 C0 0.67 0 0.34 0 0 Z " fill="#FFFFFF" transform="translate(201,92)"/>
<path d="M0 0 C1.65 0 3.3 0 5 0 C5 0.33 5 0.66 5 1 C3.35 1 1.7 1 0 1 C0 0.67 0 0.34 0 0 Z " fill="#FFFFFF" transform="translate(266,77)"/>
<path d="M0 0 C3 1 3 1 3 1 Z " fill="#FFFFFF" transform="translate(288,67)"/>
<path d="M0 0 C3 1 3 1 3 1 Z " fill="#FFFFFF" transform="translate(455,45)"/>
<path d="M0 0 C3 1 3 1 3 1 Z " fill="#FFFFFF" transform="translate(47,29)"/>
<path d="M0 0 C3 1 3 1 3 1 Z " fill="#FFFFFF" transform="translate(43,1)"/>
<path d="M0 0 C2 1 2 1 2 1 Z " fill="#FFFFFF" transform="translate(470,92)"/>
<path d="M0 0 C2 1 2 1 2 1 Z " fill="#FFFFFF" transform="translate(276,92)"/>
<path d="M0 0 C2 1 2 1 2 1 Z " fill="#FFFFFF" transform="translate(259,92)"/>
<path d="M0 0 C2 1 2 1 2 1 Z " fill="#FFFFFF" transform="translate(109,92)"/>
<path d="M0 0 C2 1 2 1 2 1 Z " fill="#FFFFFF" transform="translate(474,91)"/>
<path d="M0 0 C2 1 2 1 2 1 Z " fill="#FFFFFF" transform="translate(395,77)"/>
<path d="M0 0 C2 1 2 1 2 1 Z " fill="#FFFFFF" transform="translate(262,76)"/>
<path d="M0 0 C2 1 2 1 2 1 Z " fill="#FFFFFF" transform="translate(475,73)"/>
<path d="M0 0 C2 1 2 1 2 1 Z " fill="#FFFFFF" transform="translate(49,70)"/>
<path d="M0 0 C2 1 2 1 2 1 Z " fill="#FFFFFF" transform="translate(43,70)"/>
<path d="M0 0 C2 1 2 1 2 1 Z " fill="#FFFFFF" transform="translate(483,67)"/>
<path d="M0 0 C2 1 2 1 2 1 Z " fill="#FFFFFF" transform="translate(261,45)"/>
<path d="M0 0 C2 1 2 1 2 1 Z " fill="#FFFFFF" transform="translate(42,36)"/>
<path d="M0 0 C2 1 2 1 2 1 Z " fill="#FFFFFF" transform="translate(44,29)"/>
<path d="M0 0 C2 1 2 1 2 1 Z " fill="#FFFFFF" transform="translate(68,1)"/>
<path d="M0 0 C2 1 2 1 2 1 Z " fill="#FFFFFF" transform="translate(63,1)"/>
<path d="M0 0 C2 1 2 1 2 1 Z " fill="#FFFFFF" transform="translate(48,1)"/>
<path d="M0 0 C2 1 2 1 2 1 Z " fill="#FFFFFF" transform="translate(29,1)"/>
<path d="" fill="#FFFFFF" transform="translate(0,0)"/>
<path d="" fill="#FFFFFF" transform="translate(0,0)"/>
<path d="" fill="#FFFFFF" transform="translate(0,0)"/>
<path d="" fill="#FFFFFF" transform="translate(0,0)"/>
<path d="" fill="#FFFFFF" transform="translate(0,0)"/>
<path d="" fill="#FFFFFF" transform="translate(0,0)"/>
</svg>
